<svg width="447" height="73" viewBox="0 0 447 73" fill="none" xmlns="http://www.w3.org/2000/svg">
<path d="M16.8708 36.5217C14.3384 36.4848 12.2527 36.0379 12.2527 32.6484C11.6941 34.25 10.0181 36.5217 6.85233 36.5217C2.94218 36.5217 0 32.4995 0 27.8812C0 23.5986 2.94218 19.3903 7.63459 19.3903C9.75737 19.3903 11.1726 20.3212 12.0291 20.8797C12.4388 21.1405 12.6624 21.2893 12.6624 21.2893C12.7367 21.2893 12.9232 20.8053 13.0721 20.3585C13.1464 20.2097 13.0721 20.0602 13.3329 19.8H15.1949C14.9713 20.7683 14.9341 21.7362 14.9341 22.5186V32.1645C14.9341 33.17 15.1202 34.9948 16.8708 35.1437H21.0425V36.5217H17.8763H16.8708ZM3.38942 28.105C3.38942 33.5795 5.77295 35.2555 7.3367 35.2555C9.16159 35.2555 10.7629 33.8775 11.359 31.9036C11.6941 30.7864 11.7687 29.3711 11.7687 27.3975C11.7687 24.2316 11.359 20.6937 7.63459 20.6937C4.72954 20.6937 3.38942 24.2691 3.38942 28.105ZM7.4485 14.8091C7.4485 15.8519 6.6291 16.7088 5.54894 16.7088C4.39451 16.7088 3.65017 15.8519 3.65017 14.8091C3.65017 13.7665 4.39451 12.9097 5.54894 12.9097C6.6291 12.9097 7.4485 13.7665 7.4485 14.8091ZM12.8114 14.8091C12.8114 15.8519 12.0291 16.7088 10.9118 16.7088C9.79451 16.7088 9.01264 15.8519 9.01264 14.8091C9.01264 13.7665 9.79451 12.9097 10.9118 12.9097C12.0291 12.9097 12.8114 13.7665 12.8114 14.8091Z" fill="#1A7279"/>
<path d="M23.2014 41.8108C23.2014 42.8535 22.382 43.7104 21.3019 43.7104C20.1474 43.7104 19.4027 42.8535 19.4027 41.8108C19.4027 40.7682 20.1474 39.9488 21.3019 39.9488C22.382 39.9488 23.2014 40.7682 23.2014 41.8108ZM32.9217 36.5222C31.0225 36.5222 29.4208 35.3679 28.2664 33.6172C27.3723 35.8518 25.0635 36.5222 22.7546 36.5222H20.3711V35.1443H22.0841C24.058 35.1443 24.8774 33.8408 24.8774 31.6808V22.3327C24.8774 21.5134 24.7284 21.3646 23.2386 20.8431L28.1546 19.9121V29.4089C28.1546 31.755 29.7187 35.1443 32.3259 35.1443H34.4115V36.5222H32.9217ZM28.5643 41.8108C28.5643 42.8535 27.782 43.7104 26.6647 43.7104C25.5474 43.7104 24.7656 42.8535 24.7656 41.8108C24.7656 40.7682 25.5474 39.9488 26.6647 39.9488C27.782 39.9488 28.5643 40.7682 28.5643 41.8108Z" fill="#1A7279"/>
<path d="M33.7419 35.1438H40.2967C38.0621 33.6538 36.647 31.1213 36.647 28.0303C36.647 23.077 40.7064 19.5017 45.3246 19.5017C48.1178 19.5017 50.6874 21.215 50.6874 23.7101C50.6874 24.8647 49.868 25.9075 48.5275 25.9075C47.1866 25.9075 46.4043 25.0881 46.4043 24.0455C46.4043 23.0024 47.0376 22.4066 48.1549 22.4066C48.4157 22.4066 48.6389 22.4437 48.8997 22.4813C48.3781 21.4753 47.3355 20.6936 45.436 20.6936C42.1216 20.6936 40.371 23.0399 40.371 27.6205C40.371 31.9408 41.9727 35.1438 45.6596 35.1438C47.2608 35.1438 48.4899 34.6597 49.4583 33.8029L50.3895 34.4362C49.0114 35.7772 47.2984 36.5217 44.9891 36.5217H33.7419V35.1438Z" fill="#1A7279"/>
<path d="M56.3108 15.5169C56.3108 14.6233 55.7522 14.2876 53.6294 14.2876V13.0586L59.588 12.7983V32.0157C59.588 33.9894 60.4821 35.0318 62.0463 35.1438H63.9083V36.5218H61.8226C58.6573 36.5218 56.3108 35.4045 56.3108 31.8668V15.5169Z" fill="#1A7279"/>
<path d="M75.7875 36.5218C73.8884 36.5218 72.2867 35.3675 71.1323 33.6169C70.2385 35.8514 67.9293 36.5218 65.6204 36.5218H63.2369V35.1437H64.9499C66.9238 35.1437 67.7432 33.8404 67.7432 31.6802V22.3324C67.7432 21.5131 67.5942 21.3642 66.1044 20.8427L71.0204 19.9114V29.4083C71.0204 31.7549 72.5849 35.1437 75.1917 35.1437H76.2347V36.5218H75.7875ZM70.6854 14.1388C70.6854 15.1813 69.866 16.0384 68.7858 16.0384C67.6685 16.0384 66.8866 15.1813 66.8866 14.1388C66.8866 13.0586 67.6685 12.2393 68.7858 12.2393C69.866 12.2393 70.6854 13.0586 70.6854 14.1388Z" fill="#1A7279"/>
<path d="M75.5643 35.144H76.4209C78.4693 35.144 79.3259 33.766 79.3259 31.5685V25.0512C79.3259 24.232 79.3259 24.083 77.65 23.5242L82.566 22.6307V29.4086C85.471 24.3437 89.3816 20.9917 91.6904 20.9917C97.3516 20.9917 100.778 26.5036 101.15 35.144H105.992V36.522H80.9647H80.7782H75.5643V35.144ZM97.6866 35.144C97.6119 26.7272 94.8562 22.1832 91.8394 22.1832C87.8917 22.1832 82.7896 31.5685 82.082 35.144H97.6866Z" fill="#1A7279"/>
<path d="M105.245 35.1437H106.065C108.15 35.1437 109.007 33.7657 109.007 31.5681V15.2934C109.007 14.4366 109.007 14.176 107.368 13.6546L112.284 12.7236V31.6801C112.284 34.8086 110.012 36.522 106.847 36.522H105.245V35.1437Z" fill="#1A7279"/>
<path d="M117.238 15.2945C117.238 14.438 117.201 14.1772 115.636 13.6556L120.515 12.7249V36.5232H117.238V15.2945Z" fill="#1A7279"/>
<path d="M136.64 22.5181C136.64 21.6248 136.603 21.3638 134.964 20.8421L139.917 19.9111V29.1849C139.917 35.8511 139.284 43.2252 130.942 43.2252C130.458 43.2252 129.639 43.1882 128.26 43.0764C133.661 41.6237 136.342 38.9797 136.64 31.9781V22.5181Z" fill="#1A7279"/>
<path d="M145.989 15.5169C145.989 14.6233 145.431 14.2876 143.308 14.2876V13.0586L149.267 12.7983V32.0157C149.267 33.9894 150.161 35.0318 151.725 35.1438H153.587V36.5218H151.501C148.336 36.5218 145.989 35.4045 145.989 31.8668V15.5169Z" fill="#1A7279"/>
<path d="M178.464 35.144V36.522H152.952V35.144H170.01C169.935 26.7272 166.993 22.2957 163.976 22.2957C160.661 22.2957 158.502 25.5727 157.347 29.4086L155.783 26.616C156.379 26.3175 156.751 26.0195 157.31 25.163C158.613 23.0402 160.364 20.9917 164.088 20.9917C170.01 20.9917 173.622 28.2542 173.696 35.144H178.464ZM166.099 41.8108C166.099 42.9281 165.205 43.7473 164.162 43.7473C163.12 43.7473 162.226 42.9281 162.226 41.8108C162.226 40.7305 163.12 39.9112 164.162 39.9112C165.205 39.9112 166.099 40.7305 166.099 41.8108Z" fill="#1A7279"/>
<path d="M177.794 35.1436H178.65C180.698 35.1436 181.555 33.7656 181.555 31.5684V25.0508C181.555 24.2314 181.555 24.0826 179.879 23.5241L184.795 22.6302V30.1533C185.056 32.3879 186.434 35.2554 188.743 35.2554C190.866 35.2554 191.722 33.8776 191.722 31.6805V23.6729C191.722 22.8911 191.685 22.7419 190.046 22.1832L195 21.2523V29.4083C195 31.7549 196.452 35.2554 199.022 35.2554C201.108 35.2554 201.964 33.8776 201.964 31.6805V22.5184C201.964 21.6248 201.964 21.3639 200.363 20.8424L205.242 19.9115V31.6805C205.242 34.8086 202.97 36.5218 199.804 36.5218C197.384 36.5218 195.521 35.1436 194.739 33.3565C194.255 35.1436 191.908 36.5218 189.599 36.5218C187.104 36.5218 185.689 35.6652 184.423 33.9521C183.603 35.6652 181.741 36.5218 179.395 36.5218H177.794V35.1436ZM192.467 14.9211C192.467 15.8893 191.759 16.6712 190.717 16.6712C189.674 16.6712 189.004 15.8893 189.004 14.9211C189.004 13.9526 189.674 13.208 190.717 13.208C191.759 13.208 192.467 13.9526 192.467 14.9211ZM195.074 10.8986C195.074 11.7926 194.404 12.5001 193.473 12.5001C192.505 12.5001 191.871 11.7926 191.871 10.8986C191.871 10.0049 192.505 9.29736 193.473 9.29736C194.404 9.29736 195.074 10.0049 195.074 10.8986ZM198.016 14.9211C198.016 15.8893 197.309 16.6712 196.303 16.6712C195.298 16.6712 194.553 15.8893 194.553 14.9211C194.553 13.9526 195.298 13.208 196.303 13.208C197.309 13.208 198.016 13.9526 198.016 14.9211Z" fill="#1A7279"/>
<path d="M208.407 13.9903L208.78 12.9843H210.53C209.748 12.4257 209.04 11.532 209.04 10.4517C209.04 8.85065 210.157 7.50977 212.02 7.50977C213.361 7.50977 214.329 8.36615 214.329 9.4464C214.329 10.2287 213.882 10.4517 213.249 10.4517C212.653 10.4517 212.132 10.1538 212.132 9.63278C212.132 9.33465 212.355 8.99965 212.653 8.8134C212.504 8.55265 212.169 8.4409 211.945 8.4409C211.238 8.4409 210.866 9.26015 210.866 10.0798C210.866 11.1594 211.647 12.9843 213.174 12.9843H214.813V13.9903H208.407ZM214.85 16.1501L209.934 17.0813C211.536 17.6398 211.573 17.9378 211.573 18.7573V35.1442H209.487L208.593 36.5218H217.793C220.139 36.5218 222.411 35.8518 223.304 33.6171C224.459 35.3674 226.098 36.5218 227.96 36.5218H228.817V35.1442H227.364C224.757 35.1442 223.155 31.7548 223.155 29.4088V12.6494L218.277 13.5805C219.766 14.1017 219.915 14.2504 219.915 15.0698V31.6804C219.915 33.8404 219.096 35.1442 217.122 35.1442H214.85V16.1501Z" fill="#1A7279"/>
<path d="M228.107 35.1437H228.926C231.012 35.1437 231.869 33.7657 231.869 31.5681V15.2934C231.869 14.4366 231.869 14.176 230.23 13.6546L235.146 12.7236V31.6801C235.146 34.8086 232.874 36.522 229.708 36.522H228.107V35.1437Z" fill="#1A7279"/>
<path d="M266.988 33.2082C265.87 30.5266 264.791 28.2178 264.12 26.6533C263.859 26.0948 263.673 25.6479 263.487 25.2753C261.96 21.9235 261.29 21.2158 260.21 21.2158C259.614 21.2158 259.39 21.7376 259.39 22.3334C259.39 22.9661 259.651 23.5995 259.8 24.0093C259.986 24.4933 260.098 24.8286 260.358 25.3873C260.917 26.6533 261.96 29.2229 264.94 36.5226H251.122C247.957 36.5226 245.573 35.4055 245.573 31.8673V25.0148C245.573 24.1209 245.015 23.823 242.891 23.823V22.5566L248.851 22.296V32.0163C248.851 33.9901 249.744 35.0331 251.346 35.1446H261.103C259.204 29.8935 256.15 24.8286 256.15 21.9984C256.15 20.7691 256.784 19.875 258.273 19.875H259.577C261.737 19.875 263.338 20.3224 264.865 23.972C265.312 25.052 266.206 27.0255 266.988 28.9253C268.105 31.4577 269.036 34.9585 271.867 35.1446H273.468V36.5226H272.574C269.781 36.5226 267.956 35.4798 266.988 33.2082ZM255.07 41.8112C255.07 42.8169 254.288 43.6734 253.208 43.6734C252.053 43.6734 251.309 42.8169 251.309 41.8112C251.309 40.7312 252.053 39.9116 253.208 39.9116C254.288 39.9116 255.07 40.7312 255.07 41.8112ZM260.47 41.8112C260.47 42.8169 259.651 43.6734 258.571 43.6734C257.453 43.6734 256.672 42.8169 256.672 41.8112C256.672 40.7312 257.453 39.9116 258.571 39.9116C259.651 39.9116 260.47 40.7312 260.47 41.8112Z" fill="#1A7279"/>
<rect x="272.798" y="35.1436" width="5.84722" height="2.03435" fill="#1A7279"/>
<rect x="277.974" y="35.1436" width="5.84722" height="2.03435" fill="#1A7279"/>
<path d="M283.151 35.1433H284.007C286.056 35.1433 286.912 33.7656 286.912 31.5682V25.0508C286.912 24.2314 286.912 24.0823 285.236 23.5238L290.152 22.6301V30.1528C290.413 32.3876 291.791 35.2555 294.1 35.2555C296.223 35.2555 297.079 33.8773 297.079 31.6798V23.6728C297.079 22.8909 297.042 22.7415 295.403 22.1828L300.357 21.2521V29.4082C300.357 31.7544 301.809 35.2555 304.379 35.2555C306.465 35.2555 307.322 33.8773 307.322 31.6798V22.5181C307.322 21.6248 307.322 21.3638 305.72 20.8421L310.599 19.9111V31.6798C310.599 34.8086 308.327 36.5216 305.161 36.5216C302.74 36.5216 300.878 35.1433 300.096 33.3558C299.612 35.1433 297.266 36.5216 294.957 36.5216C292.461 36.5216 291.046 35.665 289.78 33.9516C288.961 35.665 287.098 36.5216 284.752 36.5216H283.151V35.1433Z" fill="#1A7279"/>
<path d="M318.978 22.5181C318.978 21.6248 318.941 21.3638 317.302 20.8421L322.256 19.9111V29.1849C322.256 31.1958 322.181 33.2443 321.846 35.1433H327.283V36.5216H321.585C320.691 40.3204 318.494 43.2252 313.28 43.2252C312.796 43.2252 311.977 43.1882 310.599 43.0764C315.999 41.6237 318.68 38.9797 318.978 31.9781V22.5181Z" fill="#1A7279"/>
<path d="M326.574 35.1437H327.394C329.48 35.1437 330.336 33.7657 330.336 31.5681V15.2934C330.336 14.4366 330.336 14.176 328.697 13.6546L333.613 12.7236V31.6801C333.613 34.8086 331.341 36.522 328.175 36.522H326.574V35.1437Z" fill="#1A7279"/>
<path d="M338.568 15.2945C338.568 14.438 338.531 14.1772 336.967 13.6556L341.845 12.7249V36.5232H338.568V15.2945Z" fill="#1A7279"/>
<path d="M16.3869 64.6923V64.1204C17.4184 63.9437 17.5636 63.7672 17.3415 62.9626C17.1085 62.1731 16.8079 61.1787 16.4528 60.0341H12.8892C12.6122 60.9463 12.3897 61.7236 12.1786 62.5133C11.8231 63.7248 11.9565 63.9571 13.2114 64.1204V64.6923H9.54773V64.1204C10.6244 63.9169 10.8575 63.7805 11.446 62.0098L14.9315 51.6152L15.5091 51.4385C16.5748 54.9662 17.6405 58.5073 18.7408 62.0098C19.2728 63.7672 19.5063 63.984 20.583 64.1204V64.6923H16.3869ZM14.7546 54.1768H14.7216C14.188 55.8244 13.6669 57.528 13.1662 59.1352H16.2087L14.7546 54.1768Z" fill="#1A7279"/>
<path d="M21.0683 65.1788H15.9013V63.7121L16.3032 63.6437C16.8133 63.5568 16.9345 63.4884 16.9646 63.4654C16.9532 63.4692 16.9646 63.4163 16.8739 63.0901C16.6673 62.3889 16.4037 61.521 16.0946 60.5204H13.2497C13.0223 61.282 12.8291 61.9567 12.6469 62.639C12.4651 63.2609 12.4842 63.4163 12.5009 63.4505C12.5277 63.4806 12.6567 63.5604 13.2745 63.64L13.6972 63.6967V65.1788H9.06299V63.7197L9.45713 63.6437C10.3402 63.4771 10.4541 63.4542 10.9849 61.8582L14.5501 51.2252L15.833 50.8311L16.0815 51.6572C17.1106 55.0656 18.1417 58.4846 19.2034 61.8658C19.7053 63.5227 19.8306 63.5377 20.6437 63.64L21.0683 63.6931V65.1788ZM17.5865 64.2089H19.3262C18.8621 63.8635 18.612 63.2569 18.2764 62.1501C17.2453 58.8636 16.2406 55.5392 15.24 52.2221L14.7454 53.693H15.0862L15.2208 54.0417L16.8568 59.6217H16.832L16.9174 59.8911C17.2717 61.0392 17.5731 62.0327 17.8082 62.825C17.9123 63.2076 18.0035 63.636 17.772 63.9964C17.7212 64.08 17.6585 64.1477 17.5865 64.2089ZM10.7726 64.2089H11.8944C11.8151 64.1441 11.7468 64.0684 11.6878 63.9812C11.5324 63.7423 11.5023 63.4654 11.5344 63.1664C11.3107 63.6817 11.087 63.9964 10.7726 64.2089ZM13.8241 58.6511H15.5601L14.7185 55.7818C14.4704 56.574 14.2239 57.3663 13.9815 58.1468L13.8241 58.6511Z" fill="#1A7279"/>
<path d="M34.1755 61.4773C34.0644 62.1594 33.7199 64.0795 33.5527 64.6921H25.8931V64.1198C27.3143 63.9969 27.4583 63.8606 27.4583 62.1168V54.2974C27.4583 52.5687 27.3473 52.4458 25.97 52.3368V51.7373H30.4663V52.3368C29.1565 52.4458 29.0015 52.5537 29.0015 54.2974V62.0497C29.0015 63.1387 29.0796 63.5207 29.3896 63.7243C29.7121 63.9433 30.2783 63.9833 30.9328 63.9833C31.8106 63.9833 32.3991 63.8606 32.7762 63.3438C33.0878 62.9622 33.3977 62.309 33.6759 61.3548L34.1755 61.4773Z" fill="#1A7279"/>
<path d="M33.9235 65.1788H25.4073V63.6773L25.8511 63.6361C26.9729 63.5373 26.9729 63.5373 26.9729 62.1161V54.2996C26.9729 52.9042 26.9729 52.9042 25.9324 52.8209L25.485 52.7832V51.2515H30.9514V52.7832L30.5059 52.8209C29.4862 52.9042 29.4862 52.9042 29.4862 54.2996V62.0513C29.4862 62.8627 29.5354 63.242 29.653 63.3138C29.9222 63.4993 30.6556 63.4993 30.9326 63.4993C31.7551 63.4993 32.1492 63.3781 32.3843 63.0562C32.5987 62.7944 32.8997 62.2785 33.2088 61.2175L33.3398 60.77L34.7273 61.115L34.6548 61.5586C34.545 62.2223 34.1964 64.1742 34.0199 64.8224L33.9235 65.1788ZM32.4771 64.2083H33.169C33.2202 63.9809 33.2772 63.7006 33.3358 63.401C33.2751 63.4919 33.2145 63.5754 33.1539 63.651C32.9644 63.9091 32.735 64.0871 32.4771 64.2083ZM27.4089 64.2083H29.2568C29.2076 64.1821 29.1604 64.1553 29.1165 64.1249C28.5576 63.7649 28.5157 63.0673 28.5157 62.0513V54.2996C28.5157 53.143 28.6162 52.5443 29.0388 52.2217H27.4109C27.8714 52.5591 27.9434 53.1736 27.9434 54.2996V62.1161C27.9434 63.2719 27.8393 63.8747 27.4089 64.2083Z" fill="#1A7279"/>
<path d="M49.3359 64.8689C49.1357 64.8689 48.9478 64.8555 48.7477 64.8286C47.4046 64.7461 46.716 64.3102 45.9492 63.0025C45.3843 62.0364 44.8396 60.8231 44.3401 59.8703C44.0399 59.2981 43.7519 59.0524 42.8974 59.0524H42.4308V62.1594C42.4308 63.8339 42.5858 63.9839 43.9179 64.12V64.6923H39.4212V64.12C40.7655 63.9839 40.9205 63.8339 40.9205 62.1594V54.2573C40.9205 52.5537 40.7765 52.4458 39.4887 52.3368V51.7373H43.7409C44.9946 51.7373 45.8052 51.914 46.439 52.4325C47.1154 52.9496 47.5376 53.8346 47.5376 55.0483C47.5376 56.7783 46.6269 57.8134 45.4391 58.4259C45.7283 59.0792 46.4048 60.387 46.9055 61.3008C47.5046 62.3496 47.8602 62.9081 48.2482 63.3981C48.6692 63.9839 49.0369 64.2027 49.4139 64.3102L49.3359 64.8689ZM43.1744 58.3856C44.007 58.3856 44.5626 58.2206 44.9836 57.8134C45.6173 57.2144 45.8723 56.4365 45.8723 55.361C45.8723 53.222 44.7286 52.4325 43.4965 52.4325C42.9974 52.4325 42.7297 52.5135 42.6077 52.6229C42.4967 52.7321 42.4308 52.9628 42.4308 53.4809V58.3856H43.1744Z" fill="#1A7279"/>
<path d="M49.7589 65.353H49.3363C49.1126 65.353 48.906 65.3417 48.6843 65.3118C47.2058 65.2204 46.3698 64.6782 45.5303 63.2493C45.172 62.635 44.8214 61.9225 44.4842 61.2404C44.2869 60.8384 44.0957 60.4516 43.9098 60.099C43.6918 59.6785 43.5649 59.5417 42.9165 59.5381V62.1613C42.9165 63.5299 42.9165 63.5299 43.9668 63.6398L44.4024 63.6812V65.1788H38.9365V63.6812L39.3721 63.6398C40.4357 63.5299 40.4357 63.5299 40.4357 62.1613V54.2576C40.4357 52.9042 40.4357 52.9042 39.4481 52.8208L39.0044 52.783V51.2512H43.741C45.1761 51.2512 46.0461 51.4863 46.7473 52.0591C47.5661 52.6842 48.0229 53.7495 48.0229 55.0498C48.0229 56.5888 47.3481 57.8171 46.0668 58.6282C46.4041 59.3299 46.9328 60.3418 47.331 61.0658C47.9224 62.1044 48.2633 62.635 48.6274 63.0938C49.0179 63.6359 49.2985 63.7722 49.545 63.8444L49.9521 63.9583L49.7589 65.353ZM44.0273 58.8027C44.3609 58.9844 44.5753 59.2728 44.7701 59.6479C44.958 60.0041 45.1549 60.4024 45.3542 60.8119C45.6821 61.4713 46.0213 62.1613 46.3683 62.7563C46.9747 63.7916 47.4714 64.1855 48.417 64.3108C48.2218 64.1439 48.038 63.9353 47.8541 63.6812C47.4693 63.1966 47.1073 62.6315 46.4858 61.5396C45.9892 60.6412 45.3009 59.3069 44.9958 58.6244L44.9275 58.469C44.6701 58.6282 44.3743 58.7384 44.0273 58.8027ZM40.8657 64.2085H42.4882C42.0314 63.8671 41.946 63.2608 41.946 62.1613V53.4804C41.946 52.8553 42.0392 52.5061 42.2645 52.2787C42.2873 52.2596 42.3121 52.241 42.3365 52.2217H40.8982C41.3074 52.5404 41.4058 53.1279 41.4058 54.2576V62.1613C41.4058 63.2834 41.298 63.8785 40.8657 64.2085ZM42.9165 57.9006H43.1745C43.8927 57.9006 44.3324 57.7714 44.6452 57.4644C45.1683 56.9717 45.3884 56.3425 45.3884 55.3607C45.3884 53.7874 44.7172 52.9192 43.4966 52.9192C43.1325 52.9192 42.9828 52.9687 42.9357 52.9874C42.9507 52.9993 42.9165 53.1316 42.9165 53.4804V57.9006ZM44.9011 52.3014C45.7256 52.7642 46.3585 53.7153 46.3585 55.3607C46.3585 56.3273 46.1596 57.0781 45.737 57.6809C46.62 57.0553 47.0524 56.191 47.0524 55.0498C47.0524 54.045 46.7396 53.272 46.1461 52.8208C45.8224 52.5554 45.4335 52.3884 44.9011 52.3014Z" fill="#1A7279"/>
<path d="M60.8976 64.6923V64.1204C61.9291 63.9437 62.0743 63.7672 61.8522 62.9626C61.6191 62.1731 61.3186 61.1787 60.9635 60.0341H57.3999C57.1229 60.9463 56.9004 61.7236 56.6893 62.5133C56.3338 63.7248 56.4672 63.9571 57.722 64.1204V64.6923H54.0584V64.1204C55.1351 63.9169 55.3682 63.7805 55.9567 62.0098L59.4422 51.6152L60.0198 51.4385C61.0855 54.9662 62.1512 58.5073 63.2514 62.0098C63.7834 63.7672 64.0169 63.984 65.0936 64.1204V64.6923H60.8976ZM59.2653 54.1768H59.2323C58.6986 55.8244 58.1777 57.528 57.6768 59.1352H60.7194L59.2653 54.1768Z" fill="#1A7279"/>
<path d="M65.578 65.1788H60.4109V63.7121L60.8129 63.6437C61.3228 63.5568 61.4441 63.4884 61.4742 63.4654C61.4648 63.4692 61.4742 63.4163 61.3835 63.0901C61.1769 62.3889 60.9133 61.521 60.6042 60.5204H57.7593C57.53 61.282 57.3388 61.9567 57.1565 62.639C56.9747 63.2609 56.9938 63.4163 57.0105 63.4505C57.0373 63.4806 57.1663 63.5604 57.7841 63.64L58.2067 63.6967V65.1788H53.5726V63.7197L53.9667 63.6437C54.8498 63.4771 54.9637 63.4542 55.4945 61.8582L59.0597 51.2252L60.3426 50.8311L60.5911 51.6572C61.6202 55.0656 62.6514 58.4846 63.7129 61.8658C64.2149 63.5227 64.3402 63.5377 65.1533 63.64L65.578 63.6931V65.1788ZM62.0962 64.2089H63.8358C63.3717 63.8635 63.1215 63.2569 62.786 62.1501C61.7548 58.8636 60.7502 55.5392 59.7496 52.2221L59.2549 53.693H59.5941L59.7305 54.0417L61.3664 59.6217H61.3416L61.427 59.8911C61.7813 61.0392 62.0827 62.0327 62.3178 62.825C62.422 63.2076 62.513 63.636 62.2817 63.9964C62.2308 64.08 62.1681 64.1477 62.0962 64.2089ZM55.2822 64.2089H56.404C56.3246 64.1441 56.2563 64.0684 56.1974 63.9812C56.042 63.7423 56.0119 63.4654 56.0441 63.1664C55.8203 63.6817 55.5966 63.9964 55.2822 64.2089ZM58.3337 58.6511H60.0697L59.2281 55.7818C58.9856 56.5549 58.7448 57.3281 58.5082 58.0941L58.3337 58.6511Z" fill="#1A7279"/>
<path d="M76.2454 54.8569C75.9575 53.5758 75.4458 52.1335 74.0482 52.1335C72.8039 52.1335 72.2153 53.2092 72.2153 54.2979C72.2153 55.7017 72.9821 56.3835 74.3361 57.1865C75.7459 58.0314 77.2111 58.9716 77.2111 61.1652C77.2111 63.3026 75.7244 65.0056 73.4595 65.0056C72.7709 65.0056 72.2153 64.856 71.7943 64.6795C71.3717 64.516 71.1387 64.353 70.9727 64.2568C70.8616 63.8615 70.6176 62.0502 70.5171 61.0825L71.0166 60.9061C71.2936 62.1731 72.1043 64.2568 73.8025 64.2568C75.0138 64.2568 75.7244 63.3445 75.7244 61.9139C75.7244 60.4702 74.8352 59.7884 73.5695 58.9716C72.4158 58.2634 70.8275 57.2689 70.8275 55.0757C70.8275 53.0864 72.1372 51.4385 74.3032 51.4385C75.0907 51.4385 75.8354 51.6691 76.4566 51.9147C76.5224 52.6232 76.6006 53.4415 76.7446 54.7489L76.2454 54.8569Z" fill="#1A7279"/>
<path d="M73.458 65.4902C72.7999 65.4902 72.1763 65.3685 71.604 65.1261C71.2383 64.9855 70.9976 64.8418 70.8214 64.7354L70.6583 64.633L70.5046 64.3906C70.3703 63.9131 70.1206 61.9834 70.0328 61.1305L69.9953 60.7513L71.371 60.2661L71.4885 60.8047C71.5967 61.2971 72.2182 63.7727 73.8009 63.7727C75.0972 63.7727 75.2375 62.4724 75.2375 61.9151C75.2375 60.7137 74.5082 60.1562 73.3047 59.383C72.2011 58.7048 70.3398 57.5595 70.3398 55.0764C70.3398 52.6883 72.0064 50.9521 74.3012 50.9521C75.2339 50.9521 76.0792 51.2442 76.6331 51.464L76.9093 51.5737L76.9382 51.8693C77.0041 52.5784 77.0818 53.3936 77.2237 54.6977L77.2734 55.1336L75.8766 55.433L75.7704 54.9628C75.4007 53.3218 74.8849 52.6201 74.0454 52.6201C73.0521 52.6201 72.6998 53.5262 72.6998 54.2994C72.6998 55.4519 73.3063 56.0131 74.5818 56.7713C75.8953 57.5559 77.694 58.6286 77.694 61.1646C77.694 63.6703 75.9124 65.4902 73.458 65.4902ZM71.3978 63.9472C71.532 64.0264 71.7102 64.1293 71.9661 64.2276C72.165 64.3109 72.3715 64.3755 72.5823 64.4247C71.9888 64.0872 71.5511 63.5183 71.2367 62.9348C71.2953 63.3518 71.3538 63.7196 71.3978 63.9472ZM72.023 52.9426C71.5699 53.4884 71.3104 54.2238 71.3104 55.0764C71.3104 57.0173 72.7621 57.9082 73.8216 58.5602C75.177 59.4321 76.2081 60.2283 76.2081 61.9151C76.2081 62.5557 76.0771 63.113 75.8363 63.5568C76.3977 62.9689 76.7234 62.1388 76.7234 61.1646C76.7234 59.3261 75.5804 58.496 74.0857 57.6051C72.8438 56.8698 71.7293 56.0586 71.7293 54.2994C71.7293 53.8369 71.8241 53.3595 72.023 52.9426ZM75.3271 52.0553C75.6337 52.2791 75.8725 52.5784 76.06 52.9006C76.0397 52.6695 76.0186 52.4607 75.9994 52.26C75.7985 52.188 75.5715 52.116 75.3271 52.0553Z" fill="#1A7279"/>
<path d="M88.9384 54.8569C88.6505 53.5758 88.1387 52.1335 86.7411 52.1335C85.4969 52.1335 84.9083 53.2092 84.9083 54.2979C84.9083 55.7017 85.6751 56.3835 87.0291 57.1865C88.439 58.0314 89.9041 58.9716 89.9041 61.1652C89.9041 63.3026 88.4174 65.0056 86.1525 65.0056C85.4639 65.0056 84.9083 64.856 84.4861 64.6795C84.0647 64.516 83.8316 64.353 83.6656 64.2568C83.5546 63.8615 83.3107 62.0502 83.2101 61.0825L83.7096 60.9061C83.9867 62.1731 84.7972 64.2568 86.4955 64.2568C87.7068 64.2568 88.4174 63.3445 88.4174 61.9139C88.4174 60.4702 87.5282 59.7884 86.2636 58.9716C85.1089 58.2634 83.5204 57.2689 83.5204 55.0757C83.5204 53.0864 84.8302 51.4385 86.9962 51.4385C87.7836 51.4385 88.5284 51.6691 89.1495 51.9147C89.2154 52.6232 89.2936 53.4415 89.4379 54.7489L88.9384 54.8569Z" fill="#1A7279"/>
<path d="M86.153 65.4902C85.4937 65.4902 84.8701 65.3685 84.2974 65.1261C83.9337 64.9855 83.693 64.8418 83.5185 64.7354L83.3537 64.633L83.2 64.3906C83.0674 63.9167 82.8172 62.0099 82.7266 61.1305L82.6883 60.7476L84.0664 60.2702L84.1839 60.8047C84.2921 61.2971 84.9136 63.7727 86.4964 63.7727C87.7927 63.7727 87.933 62.4724 87.933 61.9151C87.933 60.7137 87.2032 60.1562 85.9997 59.383C84.8965 58.7048 83.0353 57.5595 83.0353 55.0764C83.0353 52.6883 84.7014 50.9521 86.9966 50.9521C87.9293 50.9521 88.7745 51.2442 89.3281 51.464L89.6048 51.5737L89.6332 51.8693C89.6995 52.5784 89.7771 53.3936 89.9191 54.6977L89.9687 55.1336L88.5716 55.433L88.4654 54.9628C88.096 53.3218 87.5803 52.6201 86.7408 52.6201C85.7459 52.6201 85.3932 53.5262 85.3932 54.2994C85.3932 55.4481 85.9997 56.0131 87.2773 56.7713C88.5906 57.5559 90.3894 58.6286 90.3894 61.1646C90.3894 63.6703 88.6078 65.4902 86.153 65.4902ZM84.0929 63.9472C84.2274 64.0264 84.4056 64.1293 84.6598 64.2276C84.8604 64.3109 85.067 64.3755 85.2793 64.4247C84.6842 64.0872 84.2466 63.5226 83.9317 62.9348C83.9906 63.3518 84.0493 63.7196 84.0929 63.9472ZM84.7147 52.9461C84.2637 53.492 84.0057 54.2238 84.0057 55.0764C84.0057 57.0173 85.4575 57.9082 86.5171 58.5602C87.8723 59.4321 88.9035 60.2283 88.9035 61.9151C88.9035 62.5557 88.7726 63.113 88.5317 63.5568C89.093 62.9689 89.4189 62.1388 89.4189 61.1646C89.4189 59.3261 88.2759 58.496 86.7807 57.6051C85.5392 56.866 84.4227 56.0586 84.4227 54.2994C84.4227 53.8369 84.5175 53.3631 84.7147 52.9461ZM88.0221 52.0553C88.3292 52.2791 88.5679 52.5784 88.7554 52.9006C88.7347 52.6695 88.714 52.4607 88.6947 52.26C88.4939 52.188 88.2665 52.116 88.0221 52.0553Z" fill="#1A7279"/>
<path d="M95.8608 64.6921V64.1198C97.2157 63.9969 97.3597 63.8742 97.3597 62.1588V54.2971C97.3597 52.5687 97.2157 52.4458 95.8608 52.3368V51.7373H100.391V52.3368C99.0469 52.4458 98.9029 52.5687 98.9029 54.2971V62.1588C98.9029 63.8742 99.0469 63.9969 100.391 64.1198V64.6921H95.8608Z" fill="#1A7279"/>
<path d="M100.877 65.1788H95.374V63.6773L95.8137 63.6399C96.8732 63.5412 96.8732 63.5412 96.8732 62.1613V54.2996C96.8732 52.9042 96.8732 52.9042 95.8193 52.8209L95.374 52.7832V51.2515H100.877V52.7832L100.431 52.8209C99.3866 52.9042 99.3866 52.9042 99.3866 54.2996V62.1613C99.3866 63.5412 99.3866 63.5412 100.437 63.6399L100.877 63.6773V65.1788ZM97.3321 64.2083H98.9262C98.5149 63.8786 98.416 63.2869 98.416 62.1613V54.2996C98.416 53.143 98.5185 52.5443 98.9449 52.2217H97.3129C97.7417 52.5443 97.8438 53.143 97.8438 54.2996V62.1613C97.8438 63.2869 97.7453 63.8786 97.3321 64.2083Z" fill="#1A7279"/>
<path d="M115.846 64.6921V64.1198C117.201 63.9969 117.345 63.8742 117.345 62.1588V54.2971C117.345 52.5687 117.201 52.4458 115.846 52.3368V51.7373H120.377V52.3368C119.032 52.4458 118.888 52.5687 118.888 54.2971V62.1588C118.888 63.8742 119.032 63.9969 120.377 64.1198V64.6921H115.846Z" fill="#1A7279"/>
<path d="M120.862 65.1788H115.361V63.6773L115.801 63.6399C116.858 63.5412 116.858 63.5412 116.858 62.1613V54.2996C116.858 52.9042 116.858 52.9042 115.807 52.8209L115.361 52.7832V51.2515H120.862V52.7832L120.416 52.8209C119.374 52.9042 119.374 52.9042 119.374 54.2996V62.1613C119.374 63.5412 119.374 63.5412 120.422 63.6399L120.862 63.6773V65.1788ZM117.317 64.2083H118.913C118.502 63.8786 118.403 63.2869 118.403 62.1613V54.2996C118.403 53.143 118.506 52.5443 118.93 52.2217H117.298C117.727 52.5443 117.829 53.143 117.829 54.2996V62.1613C117.829 63.2869 117.73 63.8786 117.317 64.2083Z" fill="#1A7279"/>
<path d="M137.933 52.3368C137.012 52.3902 136.612 52.6225 136.534 53.5349C136.479 54.1762 136.434 55.0747 136.434 56.9278V64.8957H135.902L128.607 54.5162H128.585L128.574 59.3786C128.574 61.2181 128.64 62.1594 128.685 62.7313C128.763 63.7663 129.141 64.0103 130.283 64.1198V64.6921H126.309V64.1198C127.264 64.0376 127.686 63.7797 127.764 62.7852C127.831 62.1594 127.897 61.2181 127.897 59.3786V55.102C127.897 53.6442 127.842 53.5349 127.542 53.0585C127.197 52.5687 126.842 52.4038 126.065 52.3368V51.7373H128.618L135.69 61.5734H135.734V56.9278C135.734 55.0747 135.668 54.1762 135.623 53.6039C135.546 52.6631 135.158 52.4038 133.969 52.3368V51.7373H137.933V52.3368Z" fill="#1A7279"/>
<path d="M136.919 65.3794H135.649L129.067 56.0126L129.059 59.3786C129.059 61.0845 129.114 62.0096 129.169 62.692C129.222 63.4046 129.313 63.5408 130.331 63.6398L130.769 63.6812V65.1784H125.825V63.6777L126.269 63.6358C127.065 63.5677 127.226 63.4276 127.281 62.7491C127.338 62.2104 127.412 61.289 127.412 59.3786V55.1027C127.412 53.761 127.38 53.7118 127.131 53.3213C126.911 53.0063 126.707 52.8776 126.025 52.8208L125.581 52.779V51.2512H128.867L135.249 60.1296V56.9301C135.249 55.0308 135.177 54.1284 135.14 53.6435C135.092 53.0556 135.029 52.8814 133.942 52.8208L133.485 52.7942V51.2512H138.418V52.7904L137.964 52.8208C137.16 52.8701 137.067 53.0063 137.017 53.575C136.968 54.1472 136.919 54.993 136.919 56.9301V65.3794ZM127.63 64.2085H128.856C128.522 63.9733 128.312 63.6055 128.229 63.0142C128.151 63.5979 127.942 63.9692 127.63 64.2085ZM128.358 54.0297H128.837L129.004 54.2346L135.949 64.1174V62.0587H135.486L135.297 61.8578L128.371 52.2217H127.384C127.582 52.3544 127.766 52.5365 127.939 52.779C128.204 53.1996 128.316 53.4274 128.358 54.0297ZM135.465 52.2217C135.78 52.4378 135.986 52.7753 136.074 53.2984C136.154 52.7675 136.358 52.434 136.637 52.2217H135.465Z" fill="#1A7279"/>
<path d="M148.65 51.7373C150.771 51.7373 152.392 52.2689 153.425 53.4403C154.247 54.4064 154.846 55.8643 154.846 57.7307C154.846 60.0871 154.057 61.8729 152.758 63.0443C151.481 64.1738 149.783 64.6921 147.73 64.6921H143.599V64.1198C145.021 63.9969 145.165 63.8742 145.165 62.1726V54.27C145.165 52.5537 145.021 52.4727 143.744 52.3499V51.7373H148.65ZM146.719 61.9941C146.719 63.5742 147.285 63.9433 148.506 63.9433C151.604 63.9433 153.092 61.1776 153.092 58.0434C153.092 55.9871 152.436 54.2971 151.215 53.3584C150.45 52.7319 149.45 52.4325 148.262 52.4325C147.518 52.4325 147.107 52.5687 146.93 52.7031C146.774 52.8397 146.719 53.0853 146.719 53.8615V61.9941Z" fill="#1A7279"/>
<path d="M147.731 65.1784H143.116V63.6777L143.56 63.6358C144.68 63.5372 144.68 63.5372 144.68 62.1725V54.2725C144.68 52.927 144.68 52.927 143.7 52.8324L143.26 52.7904V51.2512H148.65C150.967 51.2512 152.697 51.8806 153.791 53.1204C154.786 54.2876 155.332 55.9252 155.332 57.7296C155.332 60.1181 154.555 62.0778 153.084 63.4046C151.753 64.5835 149.953 65.1784 147.731 65.1784ZM145.125 64.2085H147.255C146.543 63.8821 146.234 63.1773 146.234 61.9944V53.863C146.234 53.0368 146.289 52.62 146.613 52.3358C146.668 52.2938 146.729 52.2559 146.795 52.2217H145.114C145.548 52.5365 145.65 53.1204 145.65 54.2725V62.1725C145.65 63.2907 145.548 63.8821 145.125 64.2085ZM148.264 52.9192C147.46 52.9192 147.223 53.0897 147.223 53.0897C147.242 53.0937 147.204 53.2567 147.204 53.863V61.9944C147.204 63.3248 147.582 63.4576 148.506 63.4576C151.533 63.4576 152.608 60.5428 152.608 58.0445C152.608 56.1076 152.009 54.5797 150.921 53.7418C150.248 53.1921 149.357 52.9192 148.264 52.9192ZM150.627 52.4229C150.952 52.5745 151.251 52.7598 151.524 52.9835C152.845 53.9996 153.578 55.8002 153.578 58.0445C153.578 60.3493 152.837 62.1954 151.583 63.2984C151.889 63.1204 152.176 62.9116 152.437 62.6805C153.696 61.547 154.361 59.8337 154.361 57.7296C154.361 56.1526 153.899 54.7426 153.057 53.7573C152.483 53.1052 151.67 52.6615 150.627 52.4229Z" fill="#1A7279"/>
<path d="M172.424 52.3368C171.458 52.4038 171.037 52.7031 170.97 53.5212C170.926 54.0801 170.87 54.8847 170.87 56.6822V58.2491C170.87 60.6053 170.56 62.3358 169.593 63.5611C168.816 64.529 167.683 64.9649 166.54 64.9649C165.519 64.9649 164.553 64.6921 163.81 63.9969C162.788 63.071 162.299 61.5579 162.299 59.1614V54.4068C162.299 52.5687 162.155 52.4727 160.846 52.3368V51.7373H165.297V52.3368C163.997 52.4325 163.853 52.5537 163.853 54.4068V58.7524C163.853 62.0364 164.974 63.8339 166.995 63.8339C169.348 63.8339 170.159 61.5176 170.159 58.2072V56.6822C170.159 54.8847 170.115 54.0938 170.026 53.4674C169.937 52.7031 169.56 52.4325 168.416 52.3368V51.7373H172.424V52.3368Z" fill="#1A7279"/>
<path d="M166.541 65.4513C165.287 65.4513 164.257 65.08 163.478 64.3482C162.345 63.3248 161.814 61.6722 161.814 59.1625V54.4054C161.814 52.9231 161.814 52.9231 160.795 52.8168L160.361 52.7713V51.2512H165.782V52.7867L165.332 52.8208C164.339 52.8965 164.339 52.8965 164.339 54.4054V58.7535C164.339 60.4704 164.684 63.3478 166.994 63.3478C167.658 63.3478 169.674 63.3478 169.674 58.2077V56.6836C169.674 54.8108 169.625 54.0907 169.548 53.5373C169.5 53.1316 169.474 52.9117 168.374 52.8208L167.931 52.779V51.2512H172.91V52.7867L172.459 52.8208C171.598 52.8814 171.492 53.0937 171.455 53.5599C171.403 54.1892 171.356 55.0044 171.356 56.6836V58.2491C171.356 60.9557 170.942 62.635 169.974 63.8594C169.151 64.887 167.933 65.4513 166.541 65.4513ZM162.237 52.2217C162.686 52.5515 162.785 53.1658 162.785 54.4054V59.1625C162.785 61.3802 163.215 62.8018 164.136 63.6358C164.735 64.2006 165.543 64.4813 166.541 64.4813C167.085 64.4813 167.595 64.3712 168.048 64.1665C167.726 64.2692 167.376 64.3183 166.994 64.3183C164.69 64.3183 163.369 62.2902 163.369 58.7535V54.4054C163.369 53.2188 163.439 52.5704 163.895 52.2217H162.237ZM169.853 52.2217C170.2 52.4455 170.423 52.7942 170.501 53.3512C170.575 52.7904 170.81 52.4417 171.121 52.2217H169.853Z" fill="#1A7279"/>
<path d="M183.862 54.8569C183.574 53.5758 183.062 52.1335 181.665 52.1335C180.421 52.1335 179.832 53.2092 179.832 54.2979C179.832 55.7017 180.599 56.3835 181.953 57.1865C183.363 58.0314 184.828 58.9716 184.828 61.1652C184.828 63.3026 183.341 65.0056 181.076 65.0056C180.388 65.0056 179.832 64.856 179.41 64.6795C178.989 64.516 178.755 64.353 178.589 64.2568C178.478 63.8615 178.234 62.0502 178.134 61.0825L178.633 60.9061C178.91 62.1731 179.721 64.2568 181.419 64.2568C182.631 64.2568 183.341 63.3445 183.341 61.9139C183.341 60.4702 182.452 59.7884 181.187 58.9716C180.033 58.2634 178.444 57.2689 178.444 55.0757C178.444 53.0864 179.754 51.4385 181.92 51.4385C182.707 51.4385 183.452 51.6691 184.073 51.9147C184.139 52.6232 184.217 53.4415 184.362 54.7489L183.862 54.8569Z" fill="#1A7279"/>
<path d="M181.076 65.4902C180.416 65.4902 179.793 65.3685 179.221 65.1261C178.857 64.9855 178.616 64.8418 178.441 64.7354L178.276 64.633L178.123 64.3906C177.99 63.9167 177.74 62.0099 177.649 61.1305L177.611 60.7476L178.989 60.2702L179.107 60.8047C179.215 61.2971 179.836 63.7727 181.419 63.7727C182.715 63.7727 182.856 62.4724 182.856 61.9151C182.856 60.7137 182.126 60.1562 180.922 59.383C179.819 58.7048 177.958 57.5595 177.958 55.0764C177.958 52.6883 179.624 50.9521 181.919 50.9521C182.852 50.9521 183.697 51.2442 184.251 51.464L184.528 51.5737L184.556 51.8693C184.622 52.5784 184.7 53.3936 184.842 54.6977L184.891 55.1336L183.494 55.433L183.388 54.9628C183.019 53.3218 182.503 52.6201 181.664 52.6201C180.669 52.6201 180.316 53.5262 180.316 54.2994C180.316 55.4481 180.922 56.0131 182.2 56.7713C183.513 57.5559 185.312 58.6286 185.312 61.1646C185.312 63.6703 183.531 65.4902 181.076 65.4902ZM179.016 63.9472C179.15 64.0264 179.328 64.1293 179.583 64.2276C179.783 64.3109 179.99 64.3755 180.202 64.4247C179.607 64.0872 179.169 63.5226 178.855 62.9348C178.914 63.3518 178.972 63.7196 179.016 63.9472ZM179.637 52.9461C179.186 53.492 178.929 54.2238 178.929 55.0764C178.929 57.0173 180.38 57.9082 181.44 58.5602C182.795 59.4321 183.826 60.2283 183.826 61.9151C183.826 62.5557 183.695 63.113 183.455 63.5568C184.016 62.9689 184.342 62.1388 184.342 61.1646C184.342 59.3261 183.199 58.496 181.704 57.6051C180.462 56.866 179.346 56.0586 179.346 54.2994C179.346 53.8369 179.44 53.3631 179.637 52.9461ZM182.945 52.0553C183.252 52.2791 183.491 52.5784 183.678 52.9006C183.657 52.6695 183.637 52.4607 183.618 52.26C183.417 52.188 183.189 52.116 182.945 52.0553Z" fill="#1A7279"/>
<path d="M199.711 54.953C199.533 53.9586 199.356 53.4266 199.144 53.0864C198.867 52.6235 198.578 52.474 197.311 52.474H196.18V62.1873C196.18 63.7675 196.324 63.998 197.9 64.1209V64.6932H192.983V64.1209C194.504 63.998 194.648 63.7809 194.648 62.1873V52.474H193.682C192.239 52.474 191.895 52.6637 191.672 53.0864C191.461 53.4266 191.317 54.0139 191.106 54.953H190.607C190.685 53.6588 190.762 52.3377 190.795 51.2332H191.15C191.395 51.7387 191.605 51.7387 192.094 51.7387H198.822C199.277 51.7387 199.432 51.6156 199.689 51.2332H200.044C200.044 52.1473 200.132 53.6857 200.21 54.8854L199.711 54.953Z" fill="#1A7279"/>
<path d="M198.386 65.1791H192.498V63.6739L192.943 63.6362C194.164 63.5374 194.164 63.5374 194.164 62.1882V52.9573H193.684C192.289 52.9573 192.191 53.1469 192.101 53.3138C191.914 53.6208 191.768 54.2277 191.58 55.0577L191.493 55.4364H190.092L190.123 54.921C190.2 53.6359 190.278 52.3167 190.31 51.2176L190.323 50.7473H191.455L191.588 51.0202C191.699 51.2517 191.699 51.2517 192.094 51.2517H198.822C199.073 51.2517 199.093 51.2517 199.289 50.9633L199.433 50.7473H200.53V51.2326C200.53 52.2068 200.634 53.9205 200.695 54.8566L200.725 55.3116L199.315 55.4934L199.234 55.0385C199.078 54.1744 198.925 53.651 198.733 53.3441C198.582 53.0903 198.502 52.9573 197.312 52.9573H196.666V62.1882C196.666 63.5374 196.666 63.5374 197.939 63.6362L198.386 63.6739V65.1791ZM194.549 64.2085H196.296C195.794 63.8636 195.695 63.257 195.695 62.1882V52.2219H195.134V62.1882C195.134 63.2608 195.037 63.8636 194.549 64.2085ZM198.931 52.2183C199.185 52.3472 199.386 52.5442 199.562 52.8361C199.579 52.8624 199.594 52.8931 199.611 52.9235C199.596 52.6201 199.584 52.3242 199.575 52.0478C199.404 52.1498 199.202 52.2068 198.931 52.2183ZM191.25 52.0742C191.239 52.3472 191.226 52.6316 191.21 52.9193C191.226 52.8894 191.243 52.8588 191.26 52.8326C191.412 52.5405 191.618 52.3472 191.9 52.2219C191.673 52.2147 191.455 52.1881 191.25 52.0742Z" fill="#1A7279"/>
<path d="M215.9 64.8689C215.7 64.8689 215.512 64.8555 215.312 64.8286C213.969 64.7461 213.281 64.3102 212.514 63.0025C211.949 62.0364 211.404 60.8231 210.905 59.8703C210.605 59.2981 210.316 59.0524 209.462 59.0524H208.995V62.1594C208.995 63.8339 209.151 63.9839 210.483 64.12V64.6923H205.986V64.12C207.33 63.9839 207.485 63.8339 207.485 62.1594V54.2573C207.485 52.5537 207.341 52.4458 206.053 52.3368V51.7373H210.306C211.559 51.7373 212.37 51.914 213.004 52.4325C213.68 52.9496 214.102 53.8346 214.102 55.0483C214.102 56.7783 213.192 57.8134 212.004 58.4259C212.293 59.0792 212.97 60.387 213.47 61.3008C214.069 62.3496 214.425 62.9081 214.813 63.3981C215.234 63.9839 215.602 64.2027 215.979 64.3102L215.9 64.8689ZM209.739 58.3856C210.572 58.3856 211.127 58.2206 211.548 57.8134C212.182 57.2144 212.437 56.4365 212.437 55.361C212.437 53.222 211.293 52.4325 210.061 52.4325C209.562 52.4325 209.294 52.5135 209.172 52.6229C209.061 52.7321 208.995 52.9628 208.995 53.4809V58.3856H209.739Z" fill="#1A7279"/>
<path d="M216.324 65.353H215.901C215.679 65.353 215.471 65.3417 215.247 65.3118C213.769 65.2204 212.935 64.6782 212.095 63.2493C211.737 62.635 211.386 61.9225 211.049 61.2404C210.852 60.8384 210.661 60.4516 210.475 60.099C210.257 59.6785 210.13 59.5417 209.481 59.5381V62.1613C209.481 63.5299 209.481 63.5299 210.532 63.6398L210.967 63.6812V65.1788H205.501V63.6812L205.937 63.6398C207 63.5299 207 63.5299 207 62.1613V54.2576C207 52.9042 207 52.9042 206.013 52.8208L205.569 52.783V51.2512H210.306C211.741 51.2512 212.611 51.4863 213.31 52.0591C214.129 52.6805 214.588 53.7495 214.588 55.0498C214.588 56.5888 213.913 57.8171 212.632 58.6282C212.969 59.3299 213.498 60.3418 213.896 61.0658C214.487 62.1044 214.828 62.635 215.192 63.0938C215.583 63.6359 215.863 63.7722 216.11 63.8444L216.517 63.9583L216.324 65.353ZM210.592 58.8027C210.924 58.9844 211.14 59.2728 211.335 59.6479C211.523 60.0041 211.72 60.4024 211.919 60.8119C212.247 61.4713 212.586 62.1613 212.933 62.7563C213.539 63.7916 214.036 64.1855 214.982 64.3108C214.787 64.1439 214.603 63.9353 214.419 63.6812C214.034 63.1966 213.672 62.6315 213.051 61.5396C212.554 60.6412 211.866 59.3069 211.561 58.6244L211.492 58.469C211.235 58.6282 210.939 58.7384 210.592 58.8027ZM207.43 64.2085H209.053C208.596 63.8671 208.511 63.2608 208.511 62.1613V53.4804C208.511 52.8553 208.604 52.5061 208.829 52.2787C208.852 52.2596 208.877 52.241 208.901 52.2217H207.463C207.872 52.5404 207.97 53.1279 207.97 54.2576V62.1613C207.97 63.2834 207.863 63.8785 207.43 64.2085ZM209.481 57.9006H209.739C210.456 57.9006 210.897 57.7714 211.212 57.4644C211.733 56.9717 211.953 56.3425 211.953 55.3607C211.953 53.7874 211.282 52.9192 210.061 52.9192C209.697 52.9192 209.548 52.9687 209.5 52.9874C209.515 52.9993 209.481 53.1316 209.481 53.4804V57.9006ZM211.466 52.3014C212.29 52.7642 212.923 53.7153 212.923 55.3607C212.923 56.3273 212.724 57.0781 212.302 57.6809C213.185 57.0553 213.617 56.191 213.617 55.0498C213.617 54.045 213.302 53.272 212.709 52.8208C212.385 52.5554 211.997 52.3884 211.466 52.3014Z" fill="#1A7279"/>
<path d="M221.2 64.6921V64.1198C222.555 63.9969 222.699 63.8742 222.699 62.1588V54.2971C222.699 52.5687 222.555 52.4458 221.2 52.3368V51.7373H225.731V52.3368C224.387 52.4458 224.243 52.5687 224.243 54.2971V62.1588C224.243 63.8742 224.387 63.9969 225.731 64.1198V64.6921H221.2Z" fill="#1A7279"/>
<path d="M226.218 65.1788H220.715V63.6773L221.155 63.6399C222.215 63.5412 222.215 63.5412 222.215 62.1613V54.2996C222.215 52.9042 222.215 52.9042 221.161 52.8209L220.715 52.7832V51.2515H226.218V52.7832L225.772 52.8209C224.728 52.9042 224.728 52.9042 224.728 54.2996V62.1613C224.728 63.5412 224.728 63.5412 225.778 63.6399L226.218 63.6773V65.1788ZM222.673 64.2083H224.267C223.856 63.8786 223.757 63.2869 223.757 62.1613V54.2996C223.757 53.143 223.86 52.5443 224.286 52.2217H222.654C223.082 52.5443 223.185 53.143 223.185 54.2996V62.1613C223.185 63.2869 223.087 63.8786 222.673 64.2083Z" fill="#1A7279"/>
<path d="M238.283 64.6923V64.1204C239.314 63.9437 239.46 63.7672 239.238 62.9626C239.004 62.1731 238.704 61.1787 238.349 60.0341H234.785C234.508 60.9463 234.286 61.7236 234.075 62.5133C233.719 63.7248 233.852 63.9571 235.108 64.1204V64.6923H231.444V64.1204C232.521 63.9169 232.754 63.7805 233.342 62.0098L236.828 51.6152L237.405 51.4385C238.471 54.9662 239.536 58.5073 240.637 62.0098C241.169 63.7672 241.402 63.984 242.479 64.1204V64.6923H238.283ZM236.651 54.1768H236.618C236.084 55.8244 235.563 57.528 235.062 59.1352H238.105L236.651 54.1768Z" fill="#1A7279"/>
<path d="M242.965 65.1788H237.798V63.7121L238.199 63.6437C238.709 63.5568 238.831 63.4884 238.861 63.4654C238.844 63.4692 238.859 63.4163 238.77 63.0901C238.563 62.3889 238.302 61.521 237.991 60.5204H235.146C234.919 61.282 234.727 61.9567 234.543 62.639C234.361 63.2609 234.382 63.4163 234.399 63.4505C234.424 63.4806 234.553 63.5604 235.171 63.64L235.594 63.6967V65.1788H230.959V63.7197L231.353 63.6437C232.236 63.4771 232.35 63.4542 232.883 61.8582L236.448 51.2252L237.728 50.8311L238.205 52.4078C239.161 55.5657 240.116 58.7307 241.1 61.8658C241.601 63.5227 241.727 63.5377 242.54 63.64L242.965 63.6931V65.1788ZM239.484 64.2089H241.223C240.758 63.8635 240.508 63.2569 240.172 62.1501C239.189 59.0191 238.232 55.85 237.277 52.6883L237.136 52.2258L236.643 53.693H236.982L237.117 54.0417L238.753 59.6217H238.728L238.812 59.8911C239.17 61.0392 239.469 62.0327 239.705 62.825C239.808 63.2076 239.9 63.636 239.668 63.9964C239.618 64.08 239.555 64.1477 239.484 64.2089ZM232.669 64.2089H233.793C233.713 64.1441 233.643 64.0684 233.586 63.9812C233.431 63.7423 233.4 63.4654 233.433 63.1664C233.207 63.6817 232.983 63.9964 232.669 64.2089ZM235.721 58.6511H237.456L236.615 55.7818C236.367 56.574 236.12 57.3663 235.878 58.1468L235.721 58.6511Z" fill="#1A7279"/>
<path d="M256.362 61.4773C256.25 62.1594 255.906 64.0795 255.739 64.6921H248.079V64.1198C249.5 63.9969 249.644 63.8606 249.644 62.1168V54.2974C249.644 52.5687 249.533 52.4458 248.156 52.3368V51.7373H252.652V52.3368C251.342 52.4458 251.188 52.5537 251.188 54.2974V62.0497C251.188 63.1387 251.266 63.5207 251.576 63.7243C251.898 63.9433 252.465 63.9833 253.119 63.9833C253.997 63.9833 254.585 63.8606 254.962 63.3438C255.274 62.9622 255.584 62.309 255.862 61.3548L256.362 61.4773Z" fill="#1A7279"/>
<path d="M256.11 65.1788H247.594V63.6773L248.037 63.6361C249.159 63.5373 249.159 63.5373 249.159 62.1161V54.2996C249.159 52.9042 249.159 52.9042 248.119 52.8209L247.671 52.7832V51.2515H253.138V52.7832L252.692 52.8209C251.672 52.9042 251.672 52.9042 251.672 54.2996V62.0513C251.672 62.8627 251.722 63.242 251.839 63.3138C252.108 63.4993 252.842 63.4993 253.119 63.4993C253.941 63.4993 254.335 63.3781 254.57 63.0562C254.785 62.7944 255.086 62.2785 255.395 61.2175L255.526 60.77L256.913 61.115L256.841 61.5586C256.731 62.2223 256.383 64.1742 256.206 64.8224L256.11 65.1788ZM254.663 64.2083H255.355C255.406 63.9809 255.463 63.7006 255.522 63.401C255.461 63.4919 255.401 63.5754 255.34 63.651C255.15 63.9091 254.921 64.0871 254.663 64.2083ZM249.595 64.2083H251.443C251.394 64.1821 251.347 64.1553 251.303 64.1249C250.744 63.7649 250.702 63.0673 250.702 62.0513V54.2996C250.702 53.143 250.802 52.5443 251.225 52.2217H249.597C250.057 52.5591 250.13 53.1736 250.13 54.2996V62.1161C250.13 63.2719 250.025 63.8747 249.595 64.2083Z" fill="#1A7279"/>
<path d="M275.547 54.953C275.369 53.9586 275.192 53.4266 274.98 53.0864C274.703 52.6235 274.414 52.474 273.148 52.474H272.016V62.1873C272.016 63.7675 272.16 63.998 273.737 64.1209V64.6932H268.819V64.1209C270.34 63.998 270.484 63.7809 270.484 62.1873V52.474H269.519C268.075 52.474 267.731 52.6637 267.509 53.0864C267.298 53.4266 267.154 54.0139 266.943 54.953H266.443C266.52 53.6588 266.598 52.3377 266.631 51.2332H266.987C267.231 51.7387 267.442 51.7387 267.93 51.7387H274.658C275.114 51.7387 275.269 51.6156 275.525 51.2332H275.88C275.88 52.1473 275.968 53.6857 276.047 54.8854L275.547 54.953Z" fill="#1A7279"/>
<path d="M274.223 65.1791H268.334V63.6739L268.779 63.6362C270 63.5374 270 63.5374 270 62.1882V52.9573H269.518C268.123 52.9573 268.027 53.1469 267.94 53.31C267.75 53.6208 267.604 54.2277 267.417 55.0577L267.329 55.4364H265.931L265.972 54.7086C266.044 53.4924 266.116 52.256 266.147 51.2176L266.16 50.7473H267.29L267.422 51.0202C267.534 51.2517 267.534 51.2517 267.93 51.2517H274.659C274.909 51.2517 274.928 51.2517 275.121 50.9633L275.265 50.7473H276.366V51.2326C276.366 51.9568 276.422 53.1738 276.529 54.8566L276.56 55.3116L275.151 55.4934L275.07 55.0385C274.915 54.1744 274.761 53.651 274.57 53.3441C274.418 53.0903 274.338 52.9573 273.148 52.9573H272.502V62.1882C272.502 63.5374 272.502 63.5374 273.775 63.6362L274.223 63.6739V65.1791ZM270.385 64.2085H272.132C271.63 63.8636 271.532 63.257 271.532 62.1882V52.2219H270.97V62.1882C270.97 63.2608 270.874 63.8636 270.385 64.2085ZM274.767 52.2183C275.021 52.3472 275.222 52.5442 275.398 52.8361C275.415 52.8624 275.43 52.8931 275.447 52.9193C275.432 52.601 275.421 52.3092 275.411 52.0478C275.241 52.1498 275.038 52.2068 274.767 52.2183ZM267.087 52.0742C267.073 52.3508 267.06 52.6316 267.045 52.9193C267.062 52.8894 267.079 52.8588 267.096 52.8326C267.248 52.5405 267.452 52.3472 267.735 52.2219C267.507 52.2147 267.29 52.1881 267.087 52.0742Z" fill="#1A7279"/>
<path d="M291.739 64.8689C291.539 64.8689 291.351 64.8555 291.15 64.8286C289.807 64.7461 289.119 64.3102 288.352 63.0025C287.787 62.0364 287.243 60.8231 286.743 59.8703C286.443 59.2981 286.155 59.0524 285.3 59.0524H284.834V62.1594C284.834 63.8339 284.989 63.9839 286.321 64.12V64.6923H281.824V64.12C283.169 63.9839 283.324 63.8339 283.324 62.1594V54.2573C283.324 52.5537 283.18 52.4458 281.892 52.3368V51.7373H286.144C287.398 51.7373 288.208 51.914 288.842 52.4325C289.518 52.9496 289.941 53.8346 289.941 55.0483C289.941 56.7783 289.03 57.8134 287.842 58.4259C288.131 59.0792 288.808 60.387 289.309 61.3008C289.908 62.3496 290.263 62.9081 290.651 63.3981C291.072 63.9839 291.44 64.2027 291.817 64.3102L291.739 64.8689ZM285.577 58.3856C286.41 58.3856 286.966 58.2206 287.387 57.8134C288.02 57.2144 288.276 56.4365 288.276 55.361C288.276 53.222 287.132 52.4325 285.9 52.4325C285.4 52.4325 285.133 52.5135 285.011 52.6229C284.9 52.7321 284.834 52.9628 284.834 53.4809V58.3856H285.577Z" fill="#1A7279"/>
<path d="M292.158 65.353H291.738C291.518 65.353 291.309 65.3417 291.085 65.3118C289.605 65.2204 288.771 64.6782 287.933 63.2493C287.568 62.6199 287.215 61.9073 286.874 61.2135C286.683 60.8229 286.495 60.4443 286.313 60.0953C286.093 59.6785 285.966 59.5417 285.318 59.5381V62.1613C285.318 63.5299 285.318 63.5299 286.37 63.6398L286.805 63.6812V65.1788H281.34V63.6812L281.775 63.6398C282.839 63.5299 282.839 63.5299 282.839 62.1613V54.2576C282.839 52.9042 282.839 52.9042 281.849 52.8208L281.406 52.783V51.2512H286.144C287.579 51.2512 288.449 51.4863 289.148 52.0591C289.967 52.6805 290.426 53.7495 290.426 55.0498C290.426 56.5888 289.751 57.8171 288.468 58.6282C288.801 59.3184 289.33 60.3341 289.734 61.0694C290.32 62.097 290.661 62.6274 291.031 63.0938C291.421 63.6359 291.702 63.7722 291.948 63.8444L292.357 63.9583L292.158 65.353ZM286.428 58.8027C286.76 58.9844 286.976 59.2728 287.174 59.6444C287.357 60.0006 287.549 60.3872 287.746 60.7853C288.076 61.4564 288.419 62.1574 288.771 62.7563C289.378 63.7916 289.872 64.1855 290.82 64.3108C290.627 64.1439 290.441 63.9353 290.257 63.6812C289.867 63.1886 289.505 62.6237 288.887 61.5396C288.39 60.6332 287.702 59.3107 287.397 58.6244L287.329 58.469C287.071 58.6282 286.775 58.7384 286.428 58.8027ZM283.269 64.2085H284.889C284.432 63.8671 284.347 63.2608 284.347 62.1613V53.4804C284.347 52.8509 284.44 52.5023 284.672 52.2787C284.692 52.2596 284.715 52.241 284.738 52.2217H283.301C283.711 52.5404 283.809 53.1279 283.809 54.2576V62.1613C283.809 63.2834 283.701 63.8785 283.269 64.2085ZM285.318 57.9006H285.577C286.294 57.9006 286.734 57.7714 287.046 57.4644C287.569 56.9717 287.79 56.3464 287.79 55.3607C287.79 53.7874 287.118 52.9192 285.9 52.9192C285.532 52.9192 285.382 52.9687 285.339 52.9874C285.352 52.9993 285.318 53.1316 285.318 53.4804V57.9006ZM287.304 52.3014C288.129 52.7642 288.76 53.7153 288.76 55.3607C288.76 56.3273 288.561 57.0781 288.14 57.6809C289.023 57.0553 289.456 56.1872 289.456 55.0498C289.456 54.045 289.141 53.272 288.548 52.8208C288.223 52.5554 287.835 52.3884 287.304 52.3014Z" fill="#1A7279"/>
<path d="M305.619 61.4641C305.508 62.2129 305.185 64.0525 305.041 64.6921H296.892V64.12C298.392 63.9833 298.536 63.7936 298.536 62.1594V54.3527C298.536 52.5268 298.392 52.4727 297.104 52.3368V51.7373H304.63C304.653 52.2543 304.719 53.5754 304.786 54.6929L304.275 54.7754C304.12 53.944 303.943 53.4809 303.732 53.0452C303.487 52.6093 303.032 52.4727 301.887 52.4727H300.656C300.111 52.4727 300.078 52.5268 300.078 53.1261V57.5946H301.6C303.087 57.5946 303.198 57.4314 303.409 56.083H303.908V59.9928H303.409C303.176 58.5355 303.054 58.4259 301.6 58.4259H300.078V62.09C300.078 63.0307 300.168 63.48 300.478 63.7243C300.8 63.9565 301.422 63.9565 302.177 63.9565C303.387 63.9565 303.886 63.8203 304.264 63.3021C304.553 62.8811 304.863 62.186 305.107 61.3813L305.619 61.4641Z" fill="#1A7279"/>
<path d="M305.431 65.1784H296.408V63.6777L296.849 63.6398C298.051 63.5297 298.051 63.5297 298.051 62.1613V54.3522C298.051 52.9231 298.051 52.9231 297.054 52.8168L296.62 52.7713V51.2512H305.092L305.115 51.7137C305.14 52.2332 305.206 53.5486 305.273 54.663L305.297 55.1027L303.885 55.3302L303.797 54.8641C303.654 54.0907 303.492 53.6621 303.296 53.2567C303.212 53.1089 303.032 52.9572 301.889 52.9572H300.657H300.566C300.564 53.0213 300.564 53.0897 300.564 53.1275V57.1081H301.601C302.757 57.1081 302.757 57.1081 302.93 56.0087L302.994 55.5994H304.395V60.4782H302.996L302.93 60.0688C302.744 58.9124 302.744 58.9124 301.601 58.9124H300.564V62.0892C300.564 62.851 300.628 63.2225 300.778 63.34C300.958 63.4728 301.607 63.4728 302.179 63.4728C303.35 63.4728 303.639 63.34 303.871 63.0178C304.133 62.6388 304.423 61.9716 304.643 61.2399L304.764 60.8344L306.169 61.0616L306.099 61.5356C305.985 62.313 305.659 64.1701 305.517 64.7994L305.431 65.1784ZM303.892 64.2085H304.649C304.696 63.9656 304.753 63.6625 304.81 63.3478C304.761 63.4312 304.713 63.5067 304.664 63.579C304.446 63.8785 304.196 64.0755 303.892 64.2085ZM298.439 64.2085H300.342C300.291 64.1816 300.24 64.1514 300.192 64.1134C299.686 63.7191 299.594 63.1012 299.594 62.0892V53.1275C299.594 52.7071 299.641 52.4077 299.827 52.2217H298.487C298.925 52.5475 299.022 53.1466 299.022 54.3522V62.1613C299.022 63.2608 298.93 63.8671 298.439 64.2085ZM302.626 58.0104C302.992 58.0786 303.242 58.2113 303.424 58.4463V57.5856C303.24 57.8131 302.99 57.9419 302.626 58.0104ZM303.532 52.2217C303.797 52.3471 304.003 52.5324 304.156 52.8097C304.171 52.8396 304.186 52.8737 304.203 52.908C304.19 52.6536 304.177 52.4229 304.167 52.2217H303.532Z" fill="#1A7279"/>
<path d="M319.88 61.4641C319.769 62.2129 319.447 64.0525 319.303 64.6921H311.154V64.12C312.653 63.9833 312.797 63.7936 312.797 62.1594V54.3527C312.797 52.5268 312.653 52.4727 311.365 52.3368V51.7373H318.891C318.915 52.2543 318.981 53.5754 319.048 54.6929L318.536 54.7754C318.381 53.944 318.204 53.4809 317.993 53.0452C317.749 52.6093 317.293 52.4727 316.149 52.4727H314.917C314.373 52.4727 314.34 52.5268 314.34 53.1261V57.5946H315.861C317.348 57.5946 317.459 57.4314 317.67 56.083H318.17V59.9928H317.67C317.437 58.5355 317.315 58.4259 315.861 58.4259H314.34V62.09C314.34 63.0307 314.429 63.48 314.739 63.7243C315.062 63.9565 315.683 63.9565 316.439 63.9565C317.649 63.9565 318.148 63.8203 318.525 63.3021C318.815 62.8811 319.125 62.186 319.369 61.3813L319.88 61.4641Z" fill="#1A7279"/>
<path d="M319.691 65.1784H310.669V63.6777L311.11 63.6398C312.312 63.5297 312.312 63.5297 312.312 62.1613V54.3522C312.312 52.9231 312.312 52.9231 311.314 52.8168L310.88 52.7713V51.2512H319.355L319.377 51.7137C319.399 52.2332 319.466 53.5486 319.534 54.663L319.56 55.1027L318.146 55.3302L318.059 54.8641C317.917 54.0979 317.761 53.6812 317.555 53.2567C317.473 53.1125 317.293 52.9572 316.148 52.9572H314.916H314.828C314.825 53.0213 314.825 53.0897 314.825 53.1275V57.1081H315.861C317.018 57.1081 317.018 57.1081 317.191 56.0087L317.255 55.5994H318.654V60.4782H317.257L317.191 60.0688C317.005 58.9124 317.005 58.9124 315.861 58.9124H314.825V62.0892C314.825 62.851 314.89 63.2225 315.038 63.34C315.218 63.4728 315.866 63.4728 316.439 63.4728C317.612 63.4728 317.9 63.34 318.133 63.0178C318.393 62.6388 318.683 61.9682 318.904 61.2399L319.028 60.8344L320.43 61.0616L320.36 61.5356C320.25 62.275 319.926 64.1322 319.776 64.7994L319.691 65.1784ZM318.154 64.2085H318.908C318.956 63.9656 319.013 63.6662 319.07 63.3478C319.022 63.4312 318.973 63.5067 318.926 63.5754C318.707 63.8785 318.457 64.0755 318.154 64.2085ZM312.701 64.2085H314.602C314.551 64.1816 314.5 64.1514 314.452 64.1134C313.948 63.7191 313.855 63.0974 313.855 62.0892V53.1275C313.855 52.7071 313.902 52.4077 314.088 52.2217H312.748C313.186 52.5475 313.283 53.1466 313.283 54.3522V62.1613C313.283 63.2608 313.192 63.8671 312.701 64.2085ZM316.886 58.0104C317.252 58.0786 317.502 58.2113 317.684 58.4463V57.5856C317.5 57.8131 317.25 57.9419 316.886 58.0104ZM317.792 52.2217C318.057 52.3471 318.262 52.5324 318.415 52.8055C318.432 52.8396 318.447 52.8701 318.463 52.9042C318.45 52.6536 318.438 52.4229 318.429 52.2217H317.792Z" fill="#1A7279"/>
<path d="M331.331 54.8569C331.043 53.5758 330.531 52.1335 329.134 52.1335C327.889 52.1335 327.301 53.2092 327.301 54.2979C327.301 55.7017 328.068 56.3835 329.422 57.1865C330.832 58.0314 332.297 58.9716 332.297 61.1652C332.297 63.3026 330.81 65.0056 328.545 65.0056C327.857 65.0056 327.301 64.856 326.88 64.6795C326.457 64.516 326.224 64.353 326.058 64.2568C325.947 63.8615 325.703 62.0502 325.603 61.0825L326.102 60.9061C326.379 62.1731 327.19 64.2568 328.888 64.2568C330.099 64.2568 330.81 63.3445 330.81 61.9139C330.81 60.4702 329.921 59.7884 328.655 58.9716C327.501 58.2634 325.913 57.2689 325.913 55.0757C325.913 53.0864 327.223 51.4385 329.389 51.4385C330.176 51.4385 330.921 51.6691 331.542 51.9147C331.608 52.6232 331.686 53.4415 331.831 54.7489L331.331 54.8569Z" fill="#1A7279"/>
<path d="M328.544 65.4902C327.884 65.4902 327.261 65.3685 326.69 65.1261C326.33 64.9855 326.091 64.8418 325.915 64.7392L325.741 64.637L325.589 64.3869C325.46 63.9167 325.208 61.9834 325.119 61.1305L325.081 60.7513L326.457 60.2702L326.574 60.8005C326.684 61.2971 327.308 63.7727 328.887 63.7727C330.183 63.7727 330.323 62.4724 330.323 61.9151C330.323 60.7137 329.594 60.1562 328.39 59.383C327.287 58.7048 325.428 57.5595 325.428 55.0764C325.428 52.6883 327.094 50.9521 329.387 50.9521C330.321 50.9521 331.167 51.2442 331.72 51.464L331.999 51.5737L332.025 51.8693C332.09 52.5784 332.17 53.3936 332.312 54.6977L332.361 55.1336L330.962 55.4289L330.856 54.9628C330.487 53.3218 329.971 52.6201 329.133 52.6201C328.138 52.6201 327.786 53.5262 327.786 54.2994C327.786 55.4481 328.392 56.0131 329.669 56.7713C330.983 57.5559 332.782 58.6286 332.782 61.1646C332.782 63.6703 331 65.4902 328.544 65.4902ZM326.485 63.9472C326.62 64.0264 326.798 64.1254 327.054 64.2276C327.255 64.3109 327.46 64.3755 327.672 64.4247C327.077 64.0872 326.639 63.5183 326.322 62.931C326.383 63.3518 326.44 63.7196 326.485 63.9472ZM327.107 52.9461C326.656 53.492 326.398 54.2238 326.398 55.0764C326.398 57.0173 327.848 57.9082 328.908 58.5602C330.263 59.4321 331.294 60.2283 331.294 61.9151C331.294 62.5557 331.161 63.1171 330.921 63.5604C331.484 62.9689 331.811 62.1388 331.811 61.1646C331.811 59.3261 330.668 58.496 329.173 57.6051C327.931 56.866 326.815 56.0586 326.815 54.2994C326.815 53.8369 326.91 53.3631 327.107 52.9461ZM330.413 52.0553C330.72 52.2791 330.96 52.5784 331.148 52.9006C331.125 52.6731 331.106 52.4607 331.087 52.26C330.886 52.188 330.659 52.116 330.413 52.0553Z" fill="#1A7279"/>
<path fill-rule="evenodd" clip-rule="evenodd" d="M431.86 37.7184C430.52 39.8077 432.038 40.4453 432.038 40.4453C432.038 40.4453 431.552 41.4347 432.2 42.1523C432.845 42.8762 435.176 44.4969 438.251 42.9497C441.327 41.4003 443.096 38.4204 444.438 37.3662C445.777 36.3071 447 36.4066 447 36.4066C447 36.4066 437.635 31.0889 431.86 37.7184Z" fill="#50A25B"/>
<path fill-rule="evenodd" clip-rule="evenodd" d="M428.742 46.5451C428.639 47.1583 428.755 48.9836 430.726 49.9453C432.695 50.907 434.855 50.6402 435.904 50.911C436.946 51.1778 437.38 51.8415 437.38 51.8415C437.38 51.8415 436.327 44.9782 430.794 44.6338C429.242 44.7724 429.523 45.7912 429.523 45.7912C429.523 45.7912 428.846 45.9338 428.742 46.5451Z" fill="#50A25B"/>
<path fill-rule="evenodd" clip-rule="evenodd" d="M417.516 41.0502C412.074 42.7918 412.696 49.9115 412.696 49.9115C412.696 49.9115 412.966 49.1381 413.943 48.6085C414.922 48.0748 417.143 47.7942 418.877 46.3355C420.612 44.8811 420.283 43.0316 420.026 42.4462C419.779 41.8581 419.068 41.8883 419.068 41.8883C419.068 41.8883 419.102 40.7975 417.516 41.0502Z" fill="#50A25B"/>
<path fill-rule="evenodd" clip-rule="evenodd" d="M395.838 8.41988C397.75 9.6147 399.366 8.69854 399.831 8.26633C400.294 7.8362 400.039 7.15995 400.039 7.15995C400.039 7.15995 401.063 6.84017 400.311 5.39704C396.934 0.720551 390.513 3.62282 390.513 3.62282C390.513 3.62282 391.318 3.63123 392.13 4.40267C392.945 5.17176 393.922 7.22272 395.838 8.41988Z" fill="#50A25B"/>
<path fill-rule="evenodd" clip-rule="evenodd" d="M400.265 9.77727C394.562 9.60662 392.853 16.5387 392.853 16.5387C392.853 16.5387 393.356 15.899 394.452 15.7237C395.55 15.5466 397.74 16.0239 399.849 15.227C401.954 14.4321 402.239 12.5689 402.189 11.936C402.143 11.2984 401.459 11.0911 401.459 11.0911C401.459 11.0911 401.844 10.0689 400.265 9.77727Z" fill="#50A25B"/>
<path fill-rule="evenodd" clip-rule="evenodd" d="M427.756 38.1609C434.836 32.9669 434.139 24.9034 432.552 19.2806C429.29 7.75206 414.526 -0.638689 397.799 0.198965C408.723 5.90362 406.474 16.9668 407.224 24.4638C408.064 34.4212 415.364 39.8685 419.708 40.375C422.113 31.1882 420.668 22.4058 417.312 13.1345C424.782 24.1934 428.852 52.5009 411.792 64.9879L411.45 65.1749C399.918 66.2442 388.372 65.7099 376.814 63.7045V39.5299C376.814 38.9374 377.115 38.3871 377.61 38.0752L398.059 25.1931C398.601 24.8514 399.287 24.8514 399.829 25.1928L401.663 26.3474C402.831 27.0831 404.312 26.144 404.195 24.7514C404.194 24.7393 404.193 24.7272 404.192 24.715C404.061 23.3943 404.012 22.0636 403.981 20.7312C403.968 20.1522 403.669 19.6191 403.186 19.3142L399.829 17.2004C399.287 16.8588 398.601 16.8588 398.059 17.2005L360.664 40.7551C359.873 41.2526 359.63 42.3075 360.119 43.1109L361.865 45.9782C362.354 46.7811 363.39 47.029 364.18 46.5319L367.567 44.3998C368.688 43.6945 370.134 44.5143 370.134 45.8548V62.3817C364.041 61.0288 357.945 59.2768 351.845 57.1387C377.86 78.4744 418.152 77.5591 444.421 57.6256C438.869 59.6743 433.315 61.3186 427.756 62.578V38.1609Z" fill="#1A7279"/>
<path fill-rule="evenodd" clip-rule="evenodd" d="M396.191 47.3821H392.985C392.082 47.3821 391.35 48.1266 391.35 49.045V52.3113C391.35 53.2296 392.082 53.9742 392.985 53.9742H396.191C397.094 53.9742 397.826 53.2296 397.826 52.3113V49.045C397.826 48.1266 397.094 47.3821 396.191 47.3821Z" fill="#50A25B"/>
<path fill-rule="evenodd" clip-rule="evenodd" d="M404.442 47.3821H401.235C400.332 47.3821 399.601 48.1266 399.601 49.045V52.3113C399.601 53.2296 400.332 53.9742 401.235 53.9742H404.442C405.345 53.9742 406.076 53.2296 406.076 52.3113V49.045C406.076 48.1266 405.345 47.3821 404.442 47.3821Z" fill="#50A25B"/>
<path fill-rule="evenodd" clip-rule="evenodd" d="M406.077 40.6553C406.077 39.7368 405.345 38.9924 404.442 38.9924H401.235C400.332 38.9924 399.601 39.7368 399.601 40.6553V43.9171C399.601 44.8354 400.332 45.58 401.235 45.58H404.442C405.345 45.58 406.077 44.8354 406.077 43.9171V40.6553Z" fill="#50A25B"/>
<path fill-rule="evenodd" clip-rule="evenodd" d="M397.22 40.6553C397.22 39.7368 396.488 38.9924 395.585 38.9924H392.379C391.476 38.9924 390.744 39.7368 390.744 40.6553V43.9171C390.744 44.8354 391.476 45.58 392.379 45.58H395.585C396.488 45.58 397.22 44.8354 397.22 43.9171V40.6553Z" fill="#50A25B"/>
</svg>
