<svg width="248" height="92" viewBox="0 0 248 92" fill="none" xmlns="http://www.w3.org/2000/svg">
<mask id="path-1-inside-1_2089_35948" fill="white">
<path d="M0 0H248V92H0V0Z"/>
</mask>
<path d="M248 91H0V93H248V91Z" fill="white" fill-opacity="0.19" mask="url(#path-1-inside-1_2089_35948)"/>
<g clip-path="url(#clip0_2089_35948)">
<path d="M85.3873 39.3C85.3873 38.9167 85.4206 38.4667 85.4873 37.95C85.554 37.4333 85.679 36.85 85.8623 36.2C86.0456 35.5333 86.3206 34.7917 86.6873 33.975L89.7623 35.05C89.579 35.5667 89.4206 36.0417 89.2873 36.475C89.154 36.8917 89.054 37.2833 88.9873 37.65C88.9206 38 88.8873 38.35 88.8873 38.7C88.8873 39.25 89.004 39.7417 89.2373 40.175C89.4873 40.625 89.8456 41 90.3123 41.3C90.779 41.6167 91.3456 41.8583 92.0123 42.025C92.6956 42.1917 93.479 42.275 94.3623 42.275C95.279 42.275 96.0956 42.2333 96.8123 42.15C97.5456 42.0667 98.1623 41.9417 98.6623 41.775C99.179 41.6083 99.5706 41.3917 99.8373 41.125C100.104 40.875 100.237 40.5833 100.237 40.25C100.237 40.1 100.179 39.9583 100.062 39.825C99.9623 39.6917 99.7873 39.55 99.5373 39.4C99.304 39.25 98.9873 39.0917 98.5873 38.925C98.204 38.7583 97.7373 38.575 97.1873 38.375L98.0123 34.85C98.729 35.15 99.404 35.4167 100.037 35.65C100.687 35.8667 101.304 36.05 101.887 36.2C102.471 36.3333 103.021 36.4417 103.537 36.525C104.054 36.5917 104.537 36.625 104.987 36.625C105.621 36.625 106.071 36.7917 106.337 37.125C106.604 37.4417 106.737 37.8417 106.737 38.325C106.737 38.8417 106.562 39.275 106.212 39.625C105.862 39.9583 105.371 40.125 104.737 40.125C104.604 40.125 104.471 40.125 104.337 40.125C104.221 40.125 104.096 40.125 103.962 40.125C103.846 40.125 103.721 40.125 103.587 40.125C103.621 40.2917 103.637 40.4333 103.637 40.55C103.637 40.6833 103.637 40.8083 103.637 40.925C103.637 41.475 103.446 42.0333 103.062 42.6C102.696 43.1667 102.121 43.6917 101.337 44.175C100.554 44.6583 99.554 45.0417 98.3373 45.325C97.1373 45.625 95.704 45.775 94.0373 45.775C92.2373 45.775 90.6873 45.5417 89.3873 45.075C88.104 44.625 87.1123 43.9167 86.4123 42.95C85.729 42 85.3873 40.7833 85.3873 39.3ZM96.4873 51.575C96.004 51.575 95.5873 51.4 95.2373 51.05C94.904 50.7167 94.7373 50.3167 94.7373 49.85C94.7373 49.3667 94.904 48.95 95.2373 48.6C95.5873 48.25 96.004 48.075 96.4873 48.075C96.954 48.075 97.354 48.25 97.6873 48.6C98.0206 48.95 98.1873 49.3667 98.1873 49.85C98.1873 50.3167 98.0206 50.7167 97.6873 51.05C97.354 51.4 96.954 51.575 96.4873 51.575ZM92.1623 51.575C91.679 51.575 91.2623 51.4 90.9123 51.05C90.579 50.7167 90.4123 50.3167 90.4123 49.85C90.4123 49.3667 90.579 48.95 90.9123 48.6C91.2623 48.25 91.679 48.075 92.1623 48.075C92.629 48.075 93.029 48.25 93.3623 48.6C93.6956 48.95 93.8623 49.3667 93.8623 49.85C93.8623 50.3167 93.6956 50.7167 93.3623 51.05C93.029 51.4 92.629 51.575 92.1623 51.575ZM115.551 27.225C114.935 27.225 114.518 27.0083 114.301 26.575C114.085 26.1417 113.976 25.6667 113.976 25.15C113.976 24.9667 113.985 24.775 114.001 24.575C114.035 24.3583 114.076 24.1167 114.126 23.85L115.626 23.5C115.576 23.7833 115.535 24.05 115.501 24.3C115.485 24.5333 115.476 24.7417 115.476 24.925C115.476 25.1417 115.518 25.3083 115.601 25.425C115.685 25.5417 115.801 25.6 115.951 25.6C116.151 25.6 116.31 25.4833 116.426 25.25C116.56 25.0167 116.626 24.5667 116.626 23.9V23.15L118.076 22.7V24.225C118.076 24.4083 118.11 24.5583 118.176 24.675C118.26 24.7917 118.385 24.85 118.551 24.85C118.785 24.85 118.943 24.7833 119.026 24.65C119.126 24.5 119.176 24.325 119.176 24.125C119.176 23.8417 119.143 23.5583 119.076 23.275C119.01 22.975 118.918 22.6833 118.801 22.4L120.176 22.05C120.343 22.3667 120.476 22.7333 120.576 23.15C120.693 23.55 120.751 23.9167 120.751 24.25C120.751 24.8 120.593 25.3 120.276 25.75C119.96 26.1833 119.443 26.4 118.726 26.4C118.276 26.4 117.893 26.2667 117.576 26C117.26 25.7167 117.101 25.3833 117.101 25L117.676 25.225C117.676 25.7917 117.476 26.2667 117.076 26.65C116.693 27.0333 116.185 27.225 115.551 27.225ZM104.732 40.125L104.982 36.625C105.532 36.625 105.982 36.5833 106.332 36.5C106.682 36.4 106.966 36.1917 107.182 35.875C107.416 35.5417 107.616 35.05 107.782 34.4C107.966 33.7333 108.166 32.8333 108.382 31.7L111.632 32.3C111.582 32.55 111.524 32.8417 111.457 33.175C111.391 33.5083 111.332 33.85 111.282 34.2C111.232 34.5333 111.207 34.8333 111.207 35.1C111.207 35.5667 111.357 35.9417 111.657 36.225C111.957 36.4917 112.524 36.625 113.357 36.625C113.774 36.625 114.132 36.5833 114.432 36.5C114.749 36.4 115.016 36.1917 115.232 35.875C115.466 35.5417 115.666 35.0333 115.832 34.35C116.016 33.65 116.191 32.7083 116.357 31.525L119.657 32.05C119.591 32.4333 119.524 32.8417 119.457 33.275C119.391 33.7083 119.332 34.1083 119.282 34.475C119.232 34.8417 119.207 35.1417 119.207 35.375C119.207 35.5917 119.266 35.8 119.382 36C119.516 36.1833 119.749 36.3333 120.082 36.45C120.432 36.5667 120.924 36.625 121.557 36.625C122.007 36.625 122.391 36.5667 122.707 36.45C123.041 36.3333 123.291 36.1417 123.457 35.875C123.641 35.6083 123.732 35.2583 123.732 34.825C123.732 34.2083 123.591 33.4 123.307 32.4C123.024 31.4 122.691 30.35 122.307 29.25L125.832 28.2C126.099 28.9167 126.332 29.6833 126.532 30.5C126.749 31.3 126.916 32.0833 127.032 32.85C127.166 33.6 127.232 34.2583 127.232 34.825C127.232 35.675 127.099 36.4333 126.832 37.1C126.566 37.75 126.191 38.3 125.707 38.75C125.224 39.2 124.649 39.5417 123.982 39.775C123.316 40.0083 122.582 40.125 121.782 40.125C120.816 40.125 120.024 40.0333 119.407 39.85C118.791 39.65 118.316 39.325 117.982 38.875C117.666 38.4083 117.457 37.775 117.357 36.975H118.207C117.857 37.9583 117.466 38.675 117.032 39.125C116.599 39.5583 116.082 39.8333 115.482 39.95C114.899 40.0667 114.166 40.125 113.282 40.125C112.732 40.125 112.166 40.0667 111.582 39.95C111.016 39.8167 110.507 39.5167 110.057 39.05C109.607 38.5833 109.274 37.8583 109.057 36.875L110.407 36.825C110.057 37.8083 109.599 38.5333 109.032 39C108.482 39.4667 107.849 39.775 107.132 39.925C106.416 40.0583 105.616 40.125 104.732 40.125ZM128.887 45.775L127.612 42.675C128.496 42.375 129.304 42.025 130.037 41.625C130.787 41.225 131.437 40.7833 131.987 40.3C132.537 39.8167 132.962 39.2917 133.262 38.725C133.562 38.1417 133.712 37.5167 133.712 36.85C133.712 36.15 133.554 35.3833 133.237 34.55C132.921 33.7167 132.537 32.8667 132.087 32L135.362 30.425C135.662 30.9417 135.921 31.5 136.137 32.1C136.371 32.6833 136.562 33.2083 136.712 33.675C136.862 34.1417 136.962 34.4583 137.012 34.625C137.246 35.425 137.562 35.9583 137.962 36.225C138.379 36.4917 139.046 36.625 139.962 36.625C140.596 36.625 141.046 36.7917 141.312 37.125C141.596 37.4417 141.737 37.8417 141.737 38.325C141.737 38.8417 141.562 39.275 141.212 39.625C140.862 39.9583 140.362 40.125 139.712 40.125C139.029 40.125 138.429 40.025 137.912 39.825C137.396 39.625 136.979 39.3333 136.662 38.95C136.362 38.5667 136.171 38.1167 136.087 37.6L137.012 38.125C136.912 39.0083 136.621 39.8417 136.137 40.625C135.671 41.425 135.062 42.1583 134.312 42.825C133.562 43.4917 132.721 44.075 131.787 44.575C130.854 45.075 129.887 45.475 128.887 45.775ZM139.742 40.125L139.992 36.625C140.759 36.625 141.309 36.55 141.642 36.4C141.976 36.2333 142.176 35.9333 142.242 35.5C142.309 35.05 142.326 34.4 142.292 33.55L141.842 21.7H145.367L145.867 33.8C145.901 34.7667 145.859 35.6417 145.742 36.425C145.642 37.1917 145.384 37.85 144.967 38.4C144.567 38.95 143.942 39.375 143.092 39.675C142.259 39.975 141.142 40.125 139.742 40.125ZM149.164 40L148.639 21.7H152.139L152.664 40H149.164Z" fill="white"/>
<path d="M39.688 70.08C38.9307 70.08 38.2747 69.984 37.72 69.792C37.176 69.5893 36.7547 69.2693 36.456 68.832C36.1573 68.384 35.9867 67.7867 35.944 67.04L35.656 60.592H37.912L38.184 66.256C38.2053 66.6933 38.2747 67.0293 38.392 67.264C38.52 67.488 38.7013 67.6427 38.936 67.728C39.1707 67.8027 39.4747 67.84 39.848 67.84C40.2533 67.84 40.5413 67.9467 40.712 68.16C40.8827 68.3627 40.968 68.6187 40.968 68.928C40.968 69.2587 40.856 69.536 40.632 69.76C40.4187 69.9733 40.104 70.08 39.688 70.08ZM36.76 68.592C36.0453 68.752 35.3573 68.8267 34.696 68.816C34.0347 68.7947 33.4427 68.6773 32.92 68.464C32.3973 68.24 31.9813 67.92 31.672 67.504C31.3733 67.088 31.224 66.56 31.224 65.92C31.224 65.3547 31.3467 64.8427 31.592 64.384C31.848 63.9147 32.2 63.504 32.648 63.152C33.1067 62.8 33.64 62.5013 34.248 62.256C34.856 62.0107 35.5173 61.824 36.232 61.696L36.456 63.968C35.9973 63.9893 35.5813 64.0533 35.208 64.16C34.8453 64.256 34.5307 64.384 34.264 64.544C34.008 64.704 33.8107 64.8853 33.672 65.088C33.5333 65.28 33.464 65.488 33.464 65.712C33.464 65.8933 33.528 66.0427 33.656 66.16C33.784 66.2773 33.9547 66.3733 34.168 66.448C34.3813 66.512 34.6267 66.5493 34.904 66.56C35.1813 66.5707 35.464 66.5547 35.752 66.512C36.0507 66.4693 36.344 66.4 36.632 66.304L36.76 68.592ZM36.808 58.944C36.4987 58.944 36.232 58.8373 36.008 58.624C35.7947 58.4 35.688 58.1387 35.688 57.84C35.688 57.5307 35.7947 57.264 36.008 57.04C36.232 56.816 36.4987 56.704 36.808 56.704C37.1067 56.704 37.3627 56.816 37.576 57.04C37.7893 57.264 37.896 57.5307 37.896 57.84C37.896 58.1387 37.7893 58.4 37.576 58.624C37.3627 58.8373 37.1067 58.944 36.808 58.944ZM34.04 58.928C33.7307 58.928 33.464 58.8213 33.24 58.608C33.0267 58.384 32.92 58.1227 32.92 57.824C32.92 57.5147 33.0267 57.248 33.24 57.024C33.464 56.8 33.7307 56.688 34.04 56.688C34.3387 56.688 34.5947 56.8 34.808 57.024C35.0213 57.248 35.128 57.5147 35.128 57.824C35.128 58.1227 35.0213 58.384 34.808 58.608C34.5947 58.8213 34.3387 58.928 34.04 58.928ZM39.6826 70.08L39.8426 67.84C40.2266 67.84 40.5573 67.8027 40.8346 67.728C41.112 67.6533 41.3466 67.504 41.5386 67.28C41.7306 67.0453 41.8906 66.704 42.0186 66.256C42.1573 65.808 42.28 65.2107 42.3866 64.464L44.4826 64.816C44.4613 64.976 44.4293 65.1627 44.3866 65.376C44.3546 65.5893 44.3226 65.808 44.2906 66.032C44.2693 66.2453 44.2586 66.448 44.2586 66.64C44.2586 66.832 44.296 67.0027 44.3706 67.152C44.4453 67.3013 44.5626 67.4293 44.7226 67.536C44.8933 67.632 45.112 67.7067 45.3786 67.76C45.656 67.8133 45.992 67.84 46.3866 67.84C46.792 67.84 47.08 67.9467 47.2506 68.16C47.4213 68.3627 47.5066 68.6187 47.5066 68.928C47.5066 69.2587 47.3946 69.536 47.1706 69.76C46.9573 69.9733 46.6426 70.08 46.2266 70.08C45.7466 70.08 45.3093 70.0427 44.9146 69.968C44.5306 69.8933 44.1946 69.7707 43.9066 69.6C43.6293 69.4187 43.4 69.184 43.2186 68.896C43.048 68.5973 42.9413 68.2347 42.8986 67.808H43.6666C43.4746 68.32 43.2293 68.7307 42.9306 69.04C42.6426 69.3387 42.3173 69.5627 41.9546 69.712C41.592 69.8613 41.2133 69.9573 40.8186 70C40.4346 70.0533 40.056 70.08 39.6826 70.08ZM44.1466 73.792C43.8373 73.792 43.5706 73.68 43.3466 73.456C43.1333 73.2427 43.0266 72.9867 43.0266 72.688C43.0266 72.3787 43.1333 72.112 43.3466 71.888C43.5706 71.664 43.8373 71.552 44.1466 71.552C44.4453 71.552 44.7013 71.664 44.9146 71.888C45.128 72.112 45.2346 72.3787 45.2346 72.688C45.2346 72.9867 45.128 73.2427 44.9146 73.456C44.7013 73.68 44.4453 73.792 44.1466 73.792ZM41.3786 73.792C41.0693 73.792 40.8026 73.68 40.5786 73.456C40.3653 73.2427 40.2586 72.9867 40.2586 72.688C40.2586 72.3787 40.3653 72.112 40.5786 71.888C40.8026 71.664 41.0693 71.552 41.3786 71.552C41.6773 71.552 41.9333 71.664 42.1466 71.888C42.36 72.112 42.4666 72.3787 42.4666 72.688C42.4666 72.9867 42.36 73.2427 42.1466 73.456C41.9333 73.68 41.6773 73.792 41.3786 73.792ZM46.2295 70.08L46.3895 67.84C46.8908 67.84 47.2748 67.8347 47.5415 67.824C47.8188 67.8133 48.0268 67.8027 48.1655 67.792C48.3042 67.7707 48.4215 67.7547 48.5175 67.744C48.4108 67.6373 48.2722 67.4827 48.1015 67.28C47.9308 67.0773 47.7762 66.816 47.6375 66.496C47.5095 66.176 47.4455 65.792 47.4455 65.344C47.4455 64.6933 47.6108 64.1227 47.9415 63.632C48.2828 63.1413 48.7415 62.7573 49.3175 62.48C49.8935 62.2027 50.5388 62.064 51.2535 62.064C51.5948 62.064 51.9095 62.0853 52.1975 62.128C52.4962 62.1707 52.7948 62.2347 53.0935 62.32L52.7415 64.448C52.5282 64.3947 52.3042 64.352 52.0695 64.32C51.8348 64.288 51.6268 64.272 51.4455 64.272C51.0935 64.272 50.7842 64.3307 50.5175 64.448C50.2615 64.5547 50.0588 64.7093 49.9095 64.912C49.7708 65.104 49.7015 65.3387 49.7015 65.616C49.7015 65.7973 49.7335 65.968 49.7975 66.128C49.8722 66.288 49.9628 66.432 50.0695 66.56C50.1762 66.688 50.2935 66.8 50.4215 66.896C50.5495 66.992 50.6722 67.072 50.7895 67.136C50.9175 67.1893 51.0242 67.2267 51.1095 67.248C51.3762 67.1733 51.6055 67.1093 51.7975 67.056C52.0002 66.992 52.1922 66.9333 52.3735 66.88C52.5655 66.816 52.7735 66.736 52.9975 66.64C53.2215 66.544 53.4988 66.4267 53.8295 66.288L54.5495 68.4C53.6535 68.8373 52.7788 69.1787 51.9255 69.424C51.0722 69.6693 50.1868 69.84 49.2695 69.936C48.3522 70.032 47.3388 70.08 46.2295 70.08ZM60.2077 70.08C59.2157 70.08 58.4477 69.9787 57.9037 69.776C57.3704 69.5733 56.9971 69.2587 56.7837 68.832C56.5704 68.3947 56.4477 67.8453 56.4157 67.184L56.0797 58.288H58.3197L58.6557 66.112C58.6771 66.6027 58.7304 66.9707 58.8157 67.216C58.9011 67.4613 59.0611 67.6267 59.2957 67.712C59.5411 67.7973 59.8984 67.84 60.3677 67.84C60.7731 67.84 61.0611 67.9467 61.2317 68.16C61.4131 68.3627 61.5037 68.6187 61.5037 68.928C61.5037 69.2587 61.3917 69.536 61.1677 69.76C60.9437 69.9733 60.6237 70.08 60.2077 70.08ZM60.2295 70.08L60.3895 67.84C60.7948 67.84 61.1148 67.8027 61.3495 67.728C61.5948 67.6533 61.7868 67.504 61.9255 67.28C62.0748 67.0453 62.1975 66.704 62.2935 66.256C62.4002 65.808 62.5068 65.2107 62.6135 64.464L64.7095 64.816C64.6882 64.976 64.6562 65.1627 64.6135 65.376C64.5815 65.5893 64.5495 65.808 64.5175 66.032C64.4962 66.2453 64.4855 66.448 64.4855 66.64C64.4855 66.896 64.5388 67.1147 64.6455 67.296C64.7628 67.4667 64.9655 67.6 65.2535 67.696C65.5522 67.792 65.9788 67.84 66.5335 67.84C66.9388 67.84 67.2268 67.9467 67.3975 68.16C67.5682 68.3627 67.6535 68.6187 67.6535 68.928C67.6535 69.2587 67.5415 69.536 67.3175 69.76C67.1042 69.9733 66.7895 70.08 66.3735 70.08C65.6375 70.08 65.0402 70.0107 64.5815 69.872C64.1228 69.7333 63.7815 69.4987 63.5575 69.168C63.3335 68.8373 63.1895 68.384 63.1255 67.808H63.8935C63.7015 68.32 63.4775 68.7307 63.2215 69.04C62.9655 69.3387 62.6775 69.5627 62.3575 69.712C62.0375 69.8613 61.6962 69.9573 61.3335 70C60.9815 70.0533 60.6135 70.08 60.2295 70.08ZM63.4935 62.832C63.1628 62.832 62.8802 62.72 62.6455 62.496C62.4215 62.272 62.3095 61.9947 62.3095 61.664C62.3095 61.3333 62.4215 61.0507 62.6455 60.816C62.8802 60.5813 63.1628 60.464 63.4935 60.464C63.8135 60.464 64.0855 60.5813 64.3095 60.816C64.5442 61.0507 64.6615 61.3333 64.6615 61.664C64.6615 61.9947 64.5442 62.272 64.3095 62.496C64.0855 62.72 63.8135 62.832 63.4935 62.832ZM82.4181 70.08C81.8741 70.08 81.3515 70.032 80.8501 69.936C80.3488 69.8293 79.8955 69.6907 79.4901 69.52C79.0955 69.3493 78.7701 69.1573 78.5141 68.944L79.9541 67.392C80.3381 67.552 80.7328 67.6693 81.1381 67.744C81.5435 67.808 82.0235 67.84 82.5781 67.84C82.9835 67.84 83.2715 67.9467 83.4421 68.16C83.6235 68.3627 83.7141 68.6187 83.7141 68.928C83.7141 69.2587 83.6021 69.536 83.3781 69.76C83.1541 69.9733 82.8341 70.08 82.4181 70.08ZM74.6581 70.288C73.6661 70.288 72.8395 70.2453 72.1781 70.16C71.5275 70.0747 70.9995 69.952 70.5941 69.792C70.1888 69.632 69.8688 69.44 69.6341 69.216C69.3995 68.992 69.2075 68.7467 69.0581 68.48L69.5061 68.352C69.2395 68.864 68.9355 69.2427 68.5941 69.488C68.2528 69.7333 67.8955 69.8933 67.5221 69.968C67.1488 70.0427 66.7648 70.08 66.3701 70.08L66.5301 67.84C66.8608 67.84 67.1221 67.7867 67.3141 67.68C67.5061 67.5733 67.6608 67.3973 67.7781 67.152C67.9061 66.9067 68.0235 66.5813 68.1301 66.176C68.2368 65.7707 68.3648 65.2747 68.5141 64.688L70.5461 65.184C70.4715 65.472 70.4075 65.7227 70.3541 65.936C70.3115 66.1493 70.2741 66.336 70.2421 66.496C70.2208 66.6453 70.2101 66.768 70.2101 66.864C70.2101 67.0667 70.2581 67.248 70.3541 67.408C70.4501 67.5573 70.6368 67.68 70.9141 67.776C71.1915 67.8613 71.5968 67.9307 72.1301 67.984C72.6741 68.0267 73.3835 68.048 74.2581 68.048C75.1861 68.048 75.9595 68.016 76.5781 67.952C77.1968 67.8773 77.6875 67.776 78.0501 67.648C78.4235 67.5093 78.6901 67.344 78.8501 67.152C79.0101 66.9493 79.0901 66.72 79.0901 66.464C79.0901 66.2613 79.0421 66.0747 78.9461 65.904C78.8608 65.7227 78.7168 65.5733 78.5141 65.456C78.3115 65.3387 78.0501 65.28 77.7301 65.28C77.3461 65.28 76.9568 65.376 76.5621 65.568C76.1781 65.7493 75.7995 65.9947 75.4261 66.304C75.0528 66.6027 74.6955 66.9387 74.3541 67.312C74.0235 67.6853 73.7248 68.0587 73.4581 68.432L71.0581 68.16C71.4741 67.488 71.9435 66.8427 72.4661 66.224C72.9888 65.6053 73.5488 65.0613 74.1461 64.592C74.7435 64.112 75.3621 63.7333 76.0021 63.456C76.6421 63.1787 77.2928 63.04 77.9541 63.04C78.6688 63.04 79.2768 63.1787 79.7781 63.456C80.2795 63.7333 80.6635 64.1173 80.9301 64.608C81.1968 65.0987 81.3301 65.664 81.3301 66.304C81.3301 67.0827 81.1061 67.7707 80.6581 68.368C80.2208 68.9653 79.5115 69.4347 78.5301 69.776C77.5595 70.1173 76.2688 70.288 74.6581 70.288ZM82.4326 70.08L82.5926 67.84C83.0833 67.84 83.4353 67.792 83.6486 67.696C83.862 67.5893 83.99 67.3973 84.0326 67.12C84.0753 66.832 84.086 66.416 84.0646 65.872L83.7766 58.288H86.0326L86.3526 66.032C86.374 66.6507 86.3473 67.2107 86.2726 67.712C86.2086 68.2027 86.0433 68.624 85.7766 68.976C85.5206 69.328 85.1206 69.6 84.5766 69.792C84.0433 69.984 83.3286 70.08 82.4326 70.08ZM88.4626 70L88.1266 58.288H90.3666L90.7026 70H88.4626ZM95.5167 73.68L94.7007 71.632C95.6181 71.312 96.3594 70.96 96.9247 70.576C97.5007 70.192 97.9221 69.7813 98.1887 69.344C98.4661 68.9067 98.6047 68.4533 98.6047 67.984C98.6047 67.6853 98.5621 67.376 98.4767 67.056C98.3914 66.7253 98.2687 66.3787 98.1087 66.016C97.9594 65.6533 97.7781 65.2747 97.5647 64.88L99.6607 63.872C100.034 64.5867 100.322 65.2693 100.525 65.92C100.738 66.5707 100.845 67.1787 100.845 67.744C100.845 68.2667 100.775 68.768 100.637 69.248C100.509 69.728 100.306 70.176 100.029 70.592C99.7621 71.0187 99.4154 71.4187 98.9887 71.792C98.5621 72.1653 98.0607 72.5067 97.4847 72.816C96.9087 73.136 96.2527 73.424 95.5167 73.68ZM106.88 70.08C105.888 70.08 105.12 69.9787 104.576 69.776C104.042 69.5733 103.669 69.2587 103.456 68.832C103.242 68.3947 103.12 67.8453 103.088 67.184L102.752 58.288H104.992L105.328 66.112C105.349 66.6027 105.402 66.9707 105.488 67.216C105.573 67.4613 105.733 67.6267 105.968 67.712C106.213 67.7973 106.57 67.84 107.04 67.84C107.445 67.84 107.733 67.9467 107.904 68.16C108.085 68.3627 108.176 68.6187 108.176 68.928C108.176 69.2587 108.064 69.536 107.84 69.76C107.616 69.9733 107.296 70.08 106.88 70.08ZM117.365 70.08C116.875 70.08 116.416 70.0427 115.989 69.968C115.573 69.8933 115.189 69.7653 114.837 69.584C114.485 69.392 114.171 69.1307 113.893 68.8C113.627 68.4693 113.403 68.0533 113.221 67.552L114.485 66.544C114.677 66.8853 114.912 67.152 115.189 67.344C115.467 67.5253 115.797 67.6533 116.181 67.728C116.565 67.8027 117.013 67.84 117.525 67.84C117.931 67.84 118.219 67.9467 118.389 68.16C118.56 68.3627 118.645 68.6187 118.645 68.928C118.645 69.2587 118.533 69.536 118.309 69.76C118.096 69.9733 117.781 70.08 117.365 70.08ZM106.901 70.08L107.061 67.84C107.637 67.84 108.208 67.808 108.773 67.744C109.339 67.68 109.888 67.584 110.421 67.456C110.955 67.328 111.461 67.1627 111.941 66.96C112.432 66.7573 112.891 66.512 113.317 66.224C112.997 66.032 112.651 65.8667 112.277 65.728C111.904 65.5893 111.504 65.488 111.077 65.424C110.661 65.3493 110.219 65.312 109.749 65.312C109.579 65.312 109.397 65.3173 109.205 65.328C109.024 65.3387 108.837 65.36 108.645 65.392C108.453 65.4133 108.261 65.4453 108.069 65.488L107.749 63.296C108.059 63.2107 108.384 63.152 108.725 63.12C109.077 63.0773 109.387 63.056 109.653 63.056C110.229 63.056 110.757 63.12 111.237 63.248C111.728 63.376 112.176 63.536 112.581 63.728C112.997 63.92 113.381 64.112 113.733 64.304C114.096 64.496 114.437 64.656 114.757 64.784C115.088 64.912 115.408 64.976 115.717 64.976H116.309L116.565 67.104C116.107 67.1253 115.675 67.216 115.269 67.376C114.875 67.5253 114.48 67.7173 114.085 67.952C113.701 68.176 113.285 68.4107 112.837 68.656C112.4 68.9013 111.904 69.1307 111.349 69.344C110.795 69.5573 110.155 69.7333 109.429 69.872C108.704 70.0107 107.861 70.08 106.901 70.08ZM111.429 73.68C111.12 73.68 110.853 73.5733 110.629 73.36C110.416 73.1467 110.309 72.8853 110.309 72.576C110.309 72.2667 110.416 71.9947 110.629 71.76C110.853 71.536 111.12 71.424 111.429 71.424C111.739 71.424 112 71.536 112.213 71.76C112.437 71.9947 112.549 72.2667 112.549 72.576C112.549 72.8853 112.437 73.1467 112.213 73.36C112 73.5733 111.739 73.68 111.429 73.68ZM117.37 70.08L117.53 67.84C117.882 67.84 118.17 67.8133 118.394 67.76C118.618 67.696 118.799 67.5627 118.938 67.36C119.087 67.1467 119.215 66.832 119.322 66.416C119.439 65.9893 119.567 65.4133 119.706 64.688L121.786 65.072C121.754 65.232 121.717 65.4187 121.674 65.632C121.631 65.8453 121.594 66.064 121.562 66.288C121.53 66.5013 121.514 66.6933 121.514 66.864C121.514 67.1627 121.61 67.4027 121.802 67.584C121.994 67.7547 122.357 67.84 122.89 67.84C123.157 67.84 123.386 67.8133 123.578 67.76C123.781 67.696 123.951 67.5627 124.09 67.36C124.239 67.1467 124.367 66.8213 124.474 66.384C124.591 65.936 124.703 65.3333 124.81 64.576L126.922 64.912C126.879 65.1573 126.837 65.4187 126.794 65.696C126.751 65.9733 126.714 66.2293 126.682 66.464C126.65 66.6987 126.634 66.8907 126.634 67.04C126.634 67.1787 126.671 67.312 126.746 67.44C126.831 67.5573 126.981 67.6533 127.194 67.728C127.418 67.8027 127.733 67.84 128.138 67.84C128.426 67.84 128.671 67.8027 128.874 67.728C129.087 67.6533 129.247 67.5307 129.354 67.36C129.471 67.1893 129.53 66.9653 129.53 66.688C129.53 66.2933 129.439 65.776 129.258 65.136C129.077 64.496 128.863 63.824 128.618 63.12L130.874 62.448C131.045 62.9067 131.194 63.3973 131.322 63.92C131.461 64.432 131.567 64.9333 131.642 65.424C131.727 65.904 131.77 66.3253 131.77 66.688C131.77 67.232 131.685 67.7173 131.514 68.144C131.343 68.56 131.103 68.912 130.794 69.2C130.485 69.488 130.117 69.7067 129.69 69.856C129.263 70.0053 128.794 70.08 128.282 70.08C127.663 70.08 127.157 70.0213 126.762 69.904C126.367 69.776 126.063 69.568 125.85 69.28C125.647 68.9813 125.514 68.576 125.45 68.064H125.994C125.77 68.6933 125.519 69.152 125.242 69.44C124.965 69.7173 124.634 69.8933 124.25 69.968C123.877 70.0427 123.407 70.08 122.842 70.08C122.49 70.08 122.127 70.0427 121.754 69.968C121.391 69.8827 121.066 69.6907 120.778 69.392C120.49 69.0933 120.277 68.6293 120.138 68L121.002 67.968C120.778 68.5973 120.485 69.0613 120.122 69.36C119.77 69.6587 119.365 69.856 118.906 69.952C118.447 70.0373 117.935 70.08 117.37 70.08ZM125.738 60.176C125.471 60.176 125.237 60.0747 125.034 59.872C124.842 59.6693 124.746 59.4293 124.746 59.152C124.746 58.8747 124.842 58.64 125.034 58.448C125.237 58.256 125.471 58.16 125.738 58.16C126.015 58.16 126.25 58.256 126.442 58.448C126.634 58.64 126.73 58.8747 126.73 59.152C126.73 59.4293 126.634 59.6693 126.442 59.872C126.25 60.0747 126.015 60.176 125.738 60.176ZM124.458 62.288C124.191 62.288 123.957 62.1867 123.754 61.984C123.562 61.7813 123.466 61.5413 123.466 61.264C123.466 60.9867 123.562 60.752 123.754 60.56C123.957 60.368 124.191 60.272 124.458 60.272C124.735 60.272 124.97 60.368 125.162 60.56C125.354 60.752 125.45 60.9867 125.45 61.264C125.45 61.5413 125.354 61.7813 125.162 61.984C124.97 62.1867 124.735 62.288 124.458 62.288ZM126.938 62.288C126.671 62.288 126.437 62.1867 126.234 61.984C126.042 61.7813 125.946 61.5413 125.946 61.264C125.946 60.9867 126.042 60.752 126.234 60.56C126.437 60.368 126.671 60.272 126.938 60.272C127.215 60.272 127.45 60.368 127.642 60.56C127.834 60.752 127.93 60.9867 127.93 61.264C127.93 61.5413 127.834 61.7813 127.642 61.984C127.45 62.1867 127.215 62.288 126.938 62.288ZM143.453 70.08C142.707 70.08 142.088 70.0267 141.597 69.92C141.117 69.8027 140.739 69.6267 140.461 69.392C140.184 69.1467 139.987 68.8427 139.869 68.48C139.752 68.1173 139.683 67.6853 139.661 67.184L139.325 58.288H141.565L141.901 66.112C141.923 66.6027 141.976 66.9707 142.061 67.216C142.147 67.4613 142.307 67.6267 142.541 67.712C142.787 67.7973 143.144 67.84 143.613 67.84C144.019 67.84 144.307 67.9467 144.477 68.16C144.659 68.3627 144.749 68.6187 144.749 68.928C144.749 69.2587 144.637 69.536 144.413 69.76C144.189 69.9733 143.869 70.08 143.453 70.08ZM134.845 70.08C134.557 70.08 134.264 70.0533 133.965 70C133.677 69.9573 133.475 69.9253 133.357 69.904L133.661 67.584C134.397 67.68 135.112 67.7013 135.805 67.648C136.509 67.584 137.139 67.4133 137.693 67.136C138.259 66.848 138.707 66.432 139.037 65.888C139.368 65.3333 139.533 64.6187 139.533 63.744L140.397 66.256C140.269 66.9813 140.051 67.584 139.741 68.064C139.443 68.5333 139.085 68.9067 138.669 69.184C138.264 69.4507 137.832 69.648 137.373 69.776C136.915 69.904 136.467 69.984 136.029 70.016C135.592 70.0587 135.197 70.08 134.845 70.08ZM138.317 67.888C138.157 67.5787 137.928 67.216 137.629 66.8C137.331 66.3733 136.963 65.904 136.525 65.392C136.099 64.8693 135.608 64.32 135.053 63.744C134.499 63.1573 133.885 62.5547 133.213 61.936L134.605 60.416C135.597 61.3547 136.403 62.144 137.021 62.784C137.64 63.424 138.131 63.9627 138.493 64.4C138.867 64.8267 139.149 65.1947 139.341 65.504C139.544 65.8133 139.715 66.112 139.853 66.4L138.317 67.888ZM133.485 59.92L133.213 58.8C133.587 58.736 133.864 58.6827 134.045 58.64C134.237 58.5973 134.44 58.5493 134.653 58.496L134.493 58.896C134.216 58.8 133.949 58.6133 133.693 58.336C133.448 58.048 133.325 57.7227 133.325 57.36C133.325 56.976 133.411 56.6667 133.581 56.432C133.752 56.1973 133.971 56.0267 134.237 55.92C134.504 55.8133 134.781 55.76 135.069 55.76C135.229 55.76 135.379 55.7707 135.517 55.792C135.667 55.8133 135.8 55.8453 135.917 55.888L135.789 57.04C135.683 57.0187 135.576 56.9973 135.469 56.976C135.363 56.9547 135.245 56.944 135.117 56.944C134.979 56.944 134.851 56.992 134.733 57.088C134.627 57.1733 134.573 57.28 134.573 57.408C134.573 57.5893 134.637 57.7493 134.765 57.888C134.893 58.0267 135.043 58.1387 135.213 58.224C135.395 58.2987 135.544 58.3413 135.661 58.352L134.781 58.448C135.069 58.3733 135.341 58.2987 135.597 58.224C135.853 58.1387 136.093 58.0533 136.317 57.968L136.637 59.04C136.371 59.136 136.056 59.2427 135.693 59.36C135.341 59.4667 134.973 59.568 134.589 59.664C134.216 59.76 133.848 59.8453 133.485 59.92ZM143.464 70.08L143.624 67.84C144.115 67.84 144.467 67.792 144.68 67.696C144.893 67.5893 145.021 67.3973 145.064 67.12C145.107 66.832 145.117 66.416 145.096 65.872L144.808 58.288H147.064L147.384 66.032C147.405 66.6507 147.379 67.2107 147.304 67.712C147.24 68.2027 147.075 68.624 146.808 68.976C146.552 69.328 146.152 69.6 145.608 69.792C145.075 69.984 144.36 70.08 143.464 70.08Z" fill="#5AC268"/>
<g clip-path="url(#clip1_2089_35948)">
<path fill-rule="evenodd" clip-rule="evenodd" d="M208.136 46.8042C207.262 48.1831 208.252 48.6044 208.252 48.6044C208.165 48.7837 208.129 48.9839 208.147 49.1828C208.166 49.3818 208.239 49.5716 208.357 49.7312C208.868 50.2425 209.53 50.5707 210.242 50.6657C210.953 50.7607 211.676 50.6174 212.3 50.2574C214.304 49.2348 215.457 47.27 216.332 46.5721C216.797 46.1674 217.388 45.943 218.001 45.9386C218.001 45.9386 211.899 42.4288 208.137 46.8042" fill="#5AC268"/>
<path fill-rule="evenodd" clip-rule="evenodd" d="M206.104 52.6306C206.056 53.0953 206.155 53.5635 206.387 53.9672C206.62 54.3708 206.973 54.6888 207.396 54.875C208.682 55.51 210.087 55.3346 210.77 55.5123C211.151 55.5967 211.492 55.8135 211.732 56.1251C211.732 56.1251 211.046 51.5949 207.441 51.3674C206.429 51.4586 206.609 52.1334 206.609 52.1334C206.487 52.16 206.375 52.2208 206.285 52.3088C206.195 52.3968 206.131 52.5085 206.101 52.6314" fill="#5AC268"/>
<path fill-rule="evenodd" clip-rule="evenodd" d="M198.789 49.0035C195.243 50.1526 195.649 54.8528 195.649 54.8528C195.812 54.4793 196.1 54.1752 196.461 53.9926C197.099 53.6402 198.546 53.4564 199.676 52.492C200.054 52.2005 200.331 51.7943 200.465 51.3324C200.6 50.8706 200.585 50.3773 200.424 49.9243C200.366 49.809 200.276 49.713 200.165 49.6478C200.055 49.5825 199.928 49.5506 199.8 49.5558C199.8 49.5558 199.822 48.8365 198.789 49.0035Z" fill="#5AC268"/>
<path fill-rule="evenodd" clip-rule="evenodd" d="M184.664 27.4647C185.05 27.7375 185.512 27.8753 185.982 27.8571C186.452 27.8388 186.903 27.6655 187.266 27.3636C187.353 27.2661 187.411 27.1465 187.435 27.0178C187.459 26.889 187.447 26.7562 187.402 26.6336C187.402 26.6336 188.068 26.4222 187.578 25.47C185.378 22.383 181.195 24.2988 181.195 24.2988C181.595 24.3388 181.968 24.5212 182.248 24.8135C182.777 25.3214 183.416 26.6749 184.667 27.4655" fill="#5AC268"/>
<path fill-rule="evenodd" clip-rule="evenodd" d="M187.55 28.3602C183.834 28.2476 182.72 32.823 182.72 32.823C182.994 32.526 183.363 32.3362 183.762 32.2868C184.477 32.1696 185.904 32.4852 187.278 31.9589C187.727 31.8089 188.118 31.5171 188.392 31.1263C188.666 30.7355 188.81 30.2661 188.803 29.7865C188.784 29.6575 188.729 29.5366 188.645 29.4379C188.56 29.3392 188.45 29.2667 188.327 29.2289C188.327 29.2289 188.578 28.554 187.549 28.3617" fill="#5AC268"/>
<path fill-rule="evenodd" clip-rule="evenodd" d="M205.461 47.0969C210.073 43.6682 209.619 38.3459 208.586 34.6338C206.46 27.0242 196.84 21.4852 185.942 22.0352C193.06 25.8009 191.594 33.1033 192.083 38.0518C192.631 44.625 197.387 48.2206 200.217 48.5546C201.784 42.4901 200.843 36.6937 198.656 30.5732C203.523 37.8733 206.175 56.5587 195.059 64.801L194.836 64.9243C187.305 65.6149 179.716 65.2885 172.269 63.9538V48.0031C172.268 47.8116 172.315 47.6231 172.406 47.4552C172.497 47.2872 172.628 47.1452 172.787 47.0425L186.111 38.5397C186.284 38.4293 186.484 38.3706 186.688 38.3706C186.892 38.3706 187.092 38.4293 187.265 38.5397L188.459 39.3019C188.632 39.4097 188.832 39.4662 189.035 39.4651C189.238 39.464 189.436 39.4053 189.608 39.2957C189.78 39.186 189.918 39.0298 190.006 38.8447C190.095 38.6597 190.131 38.4532 190.109 38.2487V38.2249C190.024 37.3532 189.991 36.4746 189.972 35.5952C189.968 35.408 189.919 35.2247 189.828 35.0615C189.738 34.8983 189.609 34.7603 189.453 34.6599L187.266 33.2642C187.094 33.1537 186.894 33.0951 186.689 33.0951C186.485 33.0951 186.285 33.1537 186.112 33.2642L161.747 48.8143C161.499 48.975 161.323 49.2278 161.257 49.5185C161.191 49.8092 161.239 50.1146 161.393 50.3693L162.527 52.2621C162.601 52.3876 162.699 52.4967 162.816 52.5832C162.932 52.6697 163.064 52.7318 163.205 52.7658C163.345 52.7998 163.491 52.8051 163.633 52.7814C163.776 52.7576 163.912 52.7053 164.035 52.6275L166.242 51.2203C166.409 51.1154 166.601 51.058 166.797 51.0541C166.994 51.0503 167.188 51.1 167.359 51.1983C167.53 51.2965 167.672 51.4396 167.77 51.6125C167.867 51.7854 167.917 51.9817 167.914 52.1809V63.0844C163.878 62.1707 159.899 61.015 155.998 59.6235C172.948 73.7067 199.201 73.1054 216.316 59.9453C212.771 61.2739 209.144 62.366 205.458 63.2146L205.461 47.0969Z" fill="white"/>
<path fill-rule="evenodd" clip-rule="evenodd" d="M184.894 53.1859H182.804C182.663 53.1871 182.524 53.2164 182.394 53.2723C182.264 53.3281 182.146 53.4093 182.047 53.5112C181.948 53.6131 181.87 53.7338 181.817 53.8663C181.764 53.9989 181.738 54.1406 181.739 54.2836V56.4399C181.738 56.5829 181.764 56.7247 181.817 56.8572C181.87 56.9897 181.948 57.1104 182.047 57.2123C182.146 57.3143 182.264 57.3954 182.394 57.4513C182.524 57.5071 182.663 57.5364 182.804 57.5376H184.894C185.035 57.5364 185.174 57.5071 185.304 57.4513C185.434 57.3954 185.552 57.3143 185.651 57.2123C185.75 57.1104 185.828 56.9897 185.881 56.8572C185.933 56.7247 185.96 56.5829 185.959 56.4399V54.2813C185.96 54.1384 185.933 53.9966 185.881 53.864C185.828 53.7315 185.75 53.6108 185.651 53.5089C185.552 53.407 185.434 53.3258 185.304 53.27C185.174 53.2142 185.035 53.1848 184.894 53.1836" fill="#5AC268"/>
<path fill-rule="evenodd" clip-rule="evenodd" d="M190.271 53.1859H188.182C188.041 53.1871 187.901 53.2164 187.771 53.2723C187.641 53.3281 187.524 53.4093 187.425 53.5112C187.326 53.6131 187.248 53.7338 187.195 53.8663C187.142 53.9989 187.115 54.1406 187.116 54.2836V56.4399C187.115 56.5829 187.142 56.7247 187.195 56.8572C187.248 56.9897 187.326 57.1104 187.425 57.2123C187.524 57.3143 187.641 57.3954 187.771 57.4513C187.901 57.5071 188.041 57.5364 188.182 57.5376H190.271C190.412 57.5364 190.552 57.5071 190.682 57.4513C190.811 57.3954 190.929 57.3143 191.028 57.2123C191.127 57.1104 191.205 56.9897 191.258 56.8572C191.311 56.7247 191.338 56.5829 191.336 56.4399V54.2813C191.338 54.1384 191.311 53.9966 191.258 53.864C191.205 53.7315 191.127 53.6108 191.028 53.5089C190.929 53.407 190.811 53.3258 190.682 53.27C190.552 53.2142 190.412 53.1848 190.271 53.1836" fill="#5AC268"/>
<path fill-rule="evenodd" clip-rule="evenodd" d="M191.336 48.7431C191.338 48.6001 191.311 48.4583 191.258 48.3258C191.205 48.1933 191.127 48.0726 191.028 47.9707C190.929 47.8687 190.811 47.7876 190.682 47.7317C190.552 47.6759 190.412 47.6466 190.271 47.6454H188.182C188.041 47.6466 187.901 47.6759 187.771 47.7317C187.641 47.7876 187.524 47.8687 187.425 47.9707C187.326 48.0726 187.248 48.1933 187.195 48.3258C187.142 48.4583 187.115 48.6001 187.116 48.7431V50.8963C187.115 51.0393 187.142 51.1811 187.195 51.3136C187.248 51.4461 187.326 51.5668 187.425 51.6687C187.524 51.7707 187.641 51.8519 187.771 51.9077C187.901 51.9635 188.041 51.9928 188.182 51.9941H190.271C190.412 51.9928 190.552 51.9635 190.682 51.9077C190.811 51.8519 190.929 51.7707 191.028 51.6687C191.127 51.5668 191.205 51.4461 191.258 51.3136C191.311 51.1811 191.338 51.0393 191.336 50.8963V48.7431Z" fill="#5AC268"/>
<path fill-rule="evenodd" clip-rule="evenodd" d="M185.564 48.7431C185.565 48.6001 185.539 48.4583 185.486 48.3258C185.433 48.1933 185.355 48.0726 185.256 47.9707C185.157 47.8687 185.039 47.7876 184.909 47.7317C184.779 47.6759 184.64 47.6466 184.499 47.6454H182.41C182.269 47.6466 182.129 47.6759 181.999 47.7317C181.869 47.7876 181.751 47.8687 181.653 47.9707C181.554 48.0726 181.475 48.1933 181.423 48.3258C181.37 48.4583 181.343 48.6001 181.344 48.7431V50.8963C181.343 51.0393 181.37 51.1811 181.423 51.3136C181.475 51.4461 181.554 51.5668 181.653 51.6687C181.751 51.7707 181.869 51.8519 181.999 51.9077C182.129 51.9635 182.269 51.9928 182.41 51.9941H184.499C184.64 51.9928 184.779 51.9635 184.909 51.9077C185.039 51.8519 185.157 51.7707 185.256 51.6687C185.355 51.5668 185.433 51.4461 185.486 51.3136C185.539 51.1811 185.565 51.0393 185.564 50.8963V48.7431Z" fill="#5AC268"/>
</g>
</g>
<defs>
<clipPath id="clip0_2089_35948">
<rect width="188" height="60" fill="white" transform="translate(30 16)"/>
</clipPath>
<clipPath id="clip1_2089_35948">
<rect width="62" height="48" fill="white" transform="translate(156 22)"/>
</clipPath>
</defs>
</svg>
